<?xml version="1.0" encoding="UTF-8"?>
<svg xmlns="http://www.w3.org/2000/svg" xmlns:xlink="http://www.w3.org/1999/xlink" width="100pt" height="100pt" viewBox="0 0 100 100" version="1.1">
<g id="surface1">
<path style=" stroke:none;fill-rule:nonzero;fill:rgb(0%,0%,0%);fill-opacity:1;" d="M 41.394531 29.542969 C 41.230469 29.589844 41.1875 29.617188 41.003906 29.78125 C 40.625 30.125 40.644531 30.808594 41.039062 31.148438 C 41.316406 31.382812 40.695312 31.367188 48.695312 31.367188 L 55.917969 31.363281 L 55.699219 31.160156 C 55.027344 30.535156 53.824219 29.957031 52.683594 29.71875 C 51.726562 29.519531 51.828125 29.523438 46.464844 29.511719 C 42.480469 29.503906 41.519531 29.511719 41.394531 29.542969 Z M 41.394531 29.542969 "/>
<path style=" stroke:none;fill-rule:nonzero;fill:rgb(0%,0%,0%);fill-opacity:1;" d="M 55.625 29.738281 C 56.109375 30.058594 56.328125 30.230469 56.695312 30.582031 C 57.769531 31.617188 58.359375 32.855469 58.570312 34.535156 C 58.625 34.941406 58.625 35.835938 58.570312 36.195312 C 58.410156 37.300781 57.949219 38.242188 57.191406 39.023438 L 56.921875 39.296875 L 57.199219 39.554688 C 58.78125 41.042969 59.464844 43.003906 59.148438 45.152344 C 58.839844 47.265625 57.804688 48.789062 55.984375 49.808594 L 55.75 49.941406 L 56.265625 49.921875 C 57.964844 49.859375 59.601562 49.394531 60.683594 48.671875 C 61.984375 47.804688 62.734375 46.488281 62.898438 44.785156 C 63.0625 43.097656 62.59375 41.664062 61.511719 40.546875 C 61.101562 40.125 60.714844 39.847656 60.105469 39.535156 C 59.757812 39.355469 59.757812 39.355469 59.988281 39.238281 C 60.613281 38.921875 61.285156 38.335938 61.648438 37.789062 C 62.144531 37.042969 62.371094 36.148438 62.320312 35.144531 C 62.214844 32.886719 61.269531 31.328125 59.433594 30.386719 C 58.367188 29.839844 57.285156 29.597656 55.574219 29.523438 L 55.265625 29.511719 Z M 55.625 29.738281 "/>
<path style=" stroke:none;fill-rule:nonzero;fill:rgb(0%,0%,0%);fill-opacity:1;" d="M 44.066406 33.261719 C 43.914062 33.308594 43.785156 33.394531 43.664062 33.523438 C 43.460938 33.734375 43.417969 33.847656 43.417969 34.167969 C 43.417969 34.417969 43.425781 34.46875 43.507812 34.605469 C 43.558594 34.691406 43.664062 34.816406 43.738281 34.878906 C 44.011719 35.117188 43.503906 35.101562 50.828125 35.101562 L 57.441406 35.101562 L 57.417969 34.875 C 57.363281 34.308594 57.292969 33.925781 57.160156 33.472656 L 57.089844 33.234375 L 50.621094 33.238281 C 47.058594 33.238281 44.113281 33.25 44.066406 33.261719 Z M 44.066406 33.261719 "/>
<path style=" stroke:none;fill-rule:nonzero;fill:rgb(0%,0%,0%);fill-opacity:1;" d="M 41.265625 37.035156 C 40.921875 37.191406 40.734375 37.492188 40.734375 37.882812 C 40.738281 38.261719 40.910156 38.550781 41.238281 38.714844 L 41.414062 38.800781 L 55.777344 38.800781 L 55.957031 38.664062 C 56.179688 38.488281 56.484375 38.167969 56.683594 37.886719 C 56.824219 37.691406 57.167969 37.058594 57.167969 36.988281 C 57.167969 36.976562 53.625 36.964844 49.292969 36.964844 C 41.441406 36.964844 41.417969 36.96875 41.265625 37.035156 Z M 41.265625 37.035156 "/>
<path style=" stroke:none;fill-rule:nonzero;fill:rgb(0%,0%,0%);fill-opacity:1;" d="M 38.238281 38.1875 C 37.648438 38.34375 37.199219 38.847656 37.09375 39.460938 C 36.972656 40.15625 37.335938 40.847656 37.984375 41.15625 C 38.203125 41.261719 38.28125 41.28125 38.554688 41.292969 C 38.941406 41.3125 39.214844 41.246094 39.492188 41.066406 C 39.714844 40.921875 39.964844 40.664062 40.058594 40.480469 C 40.242188 40.121094 40.285156 39.613281 40.171875 39.238281 C 39.921875 38.441406 39.054688 37.964844 38.238281 38.1875 Z M 38.238281 38.1875 "/>
<path style=" stroke:none;fill-rule:nonzero;fill:rgb(0%,0%,0%);fill-opacity:1;" d="M 41.449219 40.667969 C 41.261719 40.714844 41.171875 40.761719 41.03125 40.890625 C 40.625 41.257812 40.628906 41.929688 41.039062 42.28125 C 41.316406 42.519531 40.59375 42.5 49.625 42.5 L 57.773438 42.5 L 57.75 42.40625 C 57.660156 42.039062 57.296875 41.332031 57 40.941406 L 56.78125 40.648438 L 49.164062 40.648438 C 44.976562 40.644531 41.507812 40.652344 41.449219 40.667969 Z M 41.449219 40.667969 "/>
<path style=" stroke:none;fill-rule:nonzero;fill:rgb(0%,0%,0%);fill-opacity:1;" d="M 44.066406 44.398438 C 43.902344 44.445312 43.78125 44.53125 43.648438 44.671875 C 43.453125 44.878906 43.386719 45.078125 43.40625 45.363281 C 43.425781 45.636719 43.527344 45.832031 43.738281 46.015625 C 44.011719 46.25 43.492188 46.234375 50.964844 46.226562 L 57.714844 46.214844 L 57.792969 45.984375 C 57.910156 45.621094 58.003906 45.117188 58.023438 44.722656 L 58.042969 44.367188 L 51.097656 44.371094 C 47.277344 44.371094 44.113281 44.382812 44.066406 44.398438 Z M 44.066406 44.398438 "/>
<path style=" stroke:none;fill-rule:nonzero;fill:rgb(0%,0%,0%);fill-opacity:1;" d="M 41.476562 48.101562 C 41.019531 48.191406 40.738281 48.546875 40.734375 49.015625 C 40.734375 49.410156 40.925781 49.714844 41.273438 49.867188 L 41.433594 49.9375 L 46.355469 49.933594 C 49.328125 49.933594 51.441406 49.921875 51.683594 49.898438 C 52.714844 49.8125 53.761719 49.597656 54.535156 49.308594 C 55.171875 49.074219 55.890625 48.648438 56.351562 48.238281 L 56.511719 48.101562 L 49.160156 48.101562 C 45.117188 48.101562 41.765625 48.09375 41.714844 48.085938 C 41.660156 48.078125 41.554688 48.082031 41.476562 48.101562 Z M 41.476562 48.101562 "/>
<path style=" stroke:none;fill-rule:nonzero;fill:rgb(0%,0%,0%);fill-opacity:1;" d="M 23.367188 54.996094 C 23.367188 55.484375 23.375 55.601562 23.414062 55.601562 C 23.441406 55.601562 23.464844 55.539062 23.476562 55.417969 C 23.5 55.191406 23.59375 55.03125 23.761719 54.925781 L 23.882812 54.851562 L 25.558594 54.839844 C 26.480469 54.835938 27.234375 54.839844 27.234375 54.851562 C 27.234375 54.863281 26.332031 56.289062 25.234375 58.023438 C 24.132812 59.757812 23.234375 61.1875 23.234375 61.203125 C 23.234375 61.21875 24.308594 61.234375 25.742188 61.234375 L 28.257812 61.234375 L 28.398438 60.570312 C 28.472656 60.203125 28.546875 59.875 28.558594 59.835938 C 28.570312 59.785156 28.558594 59.765625 28.523438 59.765625 C 28.488281 59.765625 28.449219 59.828125 28.417969 59.929688 C 28.285156 60.335938 27.976562 60.707031 27.652344 60.855469 L 27.449219 60.949219 L 25.804688 60.960938 C 24.359375 60.96875 24.160156 60.964844 24.175781 60.921875 C 24.1875 60.894531 25.097656 59.445312 26.195312 57.707031 C 27.300781 55.964844 28.199219 54.515625 28.199219 54.484375 C 28.199219 54.441406 28.183594 54.433594 28.148438 54.445312 C 27.921875 54.535156 27.527344 54.550781 25.882812 54.550781 C 24.097656 54.550781 24.125 54.550781 23.476562 54.414062 L 23.367188 54.390625 Z M 23.367188 54.996094 "/>
<path style=" stroke:none;fill-rule:nonzero;fill:rgb(0%,0%,0%);fill-opacity:1;" d="M 29.601562 54.996094 C 29.601562 55.511719 29.605469 55.601562 29.648438 55.601562 C 29.6875 55.601562 29.699219 55.558594 29.699219 55.433594 C 29.699219 55.339844 29.722656 55.21875 29.75 55.171875 C 29.816406 55.039062 29.980469 54.910156 30.125 54.867188 C 30.277344 54.828125 33.433594 54.820312 33.433594 54.859375 C 33.433594 54.875 32.539062 56.296875 31.449219 58.011719 C 30.359375 59.734375 29.464844 61.160156 29.464844 61.1875 C 29.464844 61.226562 29.851562 61.234375 31.964844 61.234375 L 34.464844 61.234375 L 34.484375 61.15625 C 34.535156 60.921875 34.765625 59.828125 34.765625 59.800781 C 34.765625 59.785156 34.746094 59.765625 34.722656 59.765625 C 34.699219 59.765625 34.648438 59.851562 34.617188 59.957031 C 34.480469 60.359375 34.148438 60.75 33.832031 60.875 C 33.652344 60.945312 33.621094 60.949219 32.011719 60.960938 C 31.105469 60.964844 30.367188 60.964844 30.367188 60.953125 C 30.367188 60.941406 31.277344 59.5 32.386719 57.742188 C 33.5 55.988281 34.417969 54.523438 34.425781 54.488281 C 34.441406 54.441406 34.429688 54.429688 34.378906 54.441406 C 34.078125 54.535156 33.777344 54.550781 32.117188 54.550781 C 30.359375 54.550781 30.1875 54.539062 29.675781 54.410156 L 29.601562 54.394531 Z M 29.601562 54.996094 "/>
<path style=" stroke:none;fill-rule:nonzero;fill:rgb(0%,0%,0%);fill-opacity:1;" d="M 52.453125 54.617188 C 52.375 54.875 49.945312 60.625 49.855469 60.757812 C 49.769531 60.886719 49.5625 61.039062 49.40625 61.09375 C 49.171875 61.171875 48.785156 60.964844 48.355469 60.523438 C 48.101562 60.261719 47.625 59.648438 47.199219 59.050781 C 46.9375 58.671875 46.65625 58.351562 46.53125 58.277344 C 46.476562 58.242188 46.433594 58.210938 46.433594 58.195312 C 46.433594 58.1875 46.515625 58.167969 46.617188 58.15625 C 46.996094 58.117188 47.457031 57.78125 47.714844 57.351562 C 47.90625 57.035156 47.980469 56.742188 47.980469 56.332031 C 47.980469 55.417969 47.496094 54.796875 46.648438 54.617188 C 46.300781 54.542969 43.566406 54.542969 43.566406 54.617188 C 43.566406 54.652344 43.601562 54.667969 43.683594 54.667969 C 43.9375 54.667969 44.191406 54.871094 44.261719 55.125 C 44.3125 55.296875 44.3125 60.503906 44.261719 60.675781 C 44.222656 60.820312 44.066406 61.011719 43.929688 61.085938 C 43.878906 61.109375 43.777344 61.132812 43.699219 61.132812 C 43.601562 61.132812 43.566406 61.148438 43.566406 61.183594 C 43.566406 61.226562 43.703125 61.234375 44.601562 61.234375 C 45.496094 61.234375 45.632812 61.226562 45.632812 61.183594 C 45.632812 61.148438 45.597656 61.132812 45.5 61.132812 C 45.3125 61.132812 45.117188 61.023438 45.011719 60.859375 L 44.917969 60.71875 L 44.90625 57.789062 L 44.898438 54.859375 L 45.605469 54.875 C 46.433594 54.890625 46.535156 54.917969 46.808594 55.167969 C 47.125 55.457031 47.265625 55.828125 47.265625 56.390625 C 47.265625 57.03125 46.996094 57.507812 46.507812 57.722656 C 46.300781 57.8125 45.792969 57.898438 45.457031 57.898438 C 45.289062 57.898438 45.230469 57.910156 45.238281 57.941406 C 45.25 57.964844 45.300781 57.988281 45.355469 58.003906 C 45.660156 58.0625 45.890625 58.316406 46.699219 59.488281 C 47.421875 60.527344 47.671875 60.808594 48.058594 61.011719 C 48.488281 61.238281 48.703125 61.261719 50.261719 61.238281 C 50.863281 61.234375 50.964844 61.226562 50.964844 61.183594 C 50.964844 61.152344 50.9375 61.132812 50.882812 61.132812 C 50.679688 61.132812 50.5 60.949219 50.5 60.738281 C 50.5 60.6875 50.578125 60.449219 50.671875 60.214844 C 50.761719 59.976562 50.914062 59.59375 51.003906 59.355469 L 51.171875 58.933594 L 53.75 58.949219 L 54.074219 59.816406 C 54.253906 60.292969 54.398438 60.71875 54.398438 60.765625 C 54.398438 60.953125 54.207031 61.132812 54.011719 61.132812 C 53.933594 61.132812 53.898438 61.148438 53.898438 61.183594 C 53.898438 61.226562 54.042969 61.234375 54.984375 61.234375 C 55.878906 61.234375 56.066406 61.226562 56.066406 61.1875 C 56.066406 61.15625 56.011719 61.136719 55.882812 61.125 C 55.664062 61.105469 55.429688 60.972656 55.285156 60.785156 C 55.222656 60.699219 54.671875 59.417969 53.886719 57.539062 C 53.160156 55.808594 52.570312 54.433594 52.546875 54.433594 C 52.523438 54.433594 52.480469 54.515625 52.453125 54.617188 Z M 53.078125 57.171875 L 53.625 58.632812 L 52.464844 58.632812 C 51.824219 58.632812 51.300781 58.625 51.300781 58.617188 C 51.300781 58.605469 51.5625 57.929688 51.882812 57.113281 C 52.203125 56.292969 52.464844 55.613281 52.46875 55.601562 C 52.472656 55.574219 52.480469 55.597656 53.078125 57.171875 Z M 53.078125 57.171875 "/>
<path style=" stroke:none;fill-rule:nonzero;fill:rgb(0%,0%,0%);fill-opacity:1;" d="M 57.082031 54.574219 C 57.097656 54.648438 57.113281 56.0625 57.121094 57.707031 C 57.136719 60.660156 57.136719 60.695312 57.070312 60.828125 C 56.96875 61.027344 56.828125 61.113281 56.578125 61.125 C 56.425781 61.136719 56.367188 61.152344 56.367188 61.1875 C 56.367188 61.226562 56.535156 61.234375 57.351562 61.234375 C 58.164062 61.234375 58.332031 61.226562 58.332031 61.1875 C 58.332031 61.152344 58.273438 61.136719 58.132812 61.125 C 57.847656 61.105469 57.660156 60.953125 57.601562 60.679688 C 57.554688 60.488281 57.558594 55.855469 57.601562 55.882812 C 57.621094 55.898438 58.785156 57.128906 60.191406 58.625 C 61.597656 60.125 62.777344 61.355469 62.808594 61.359375 C 62.867188 61.371094 62.875 61.359375 62.851562 61.265625 C 62.785156 60.933594 62.761719 59.832031 62.773438 57.582031 L 62.785156 55.117188 L 62.875 54.960938 C 62.984375 54.78125 63.179688 54.667969 63.394531 54.667969 C 63.496094 54.667969 63.535156 54.652344 63.535156 54.617188 C 63.535156 54.574219 63.402344 54.566406 62.550781 54.566406 C 61.695312 54.566406 61.566406 54.574219 61.566406 54.617188 C 61.566406 54.652344 61.605469 54.667969 61.734375 54.667969 C 62.042969 54.667969 62.261719 54.839844 62.328125 55.136719 C 62.375 55.320312 62.378906 59.941406 62.335938 59.925781 C 62.320312 59.921875 61.15625 58.6875 59.746094 57.183594 C 58.339844 55.679688 57.160156 54.441406 57.125 54.441406 C 57.066406 54.429688 57.058594 54.441406 57.082031 54.574219 Z M 57.082031 54.574219 "/>
<path style=" stroke:none;fill-rule:nonzero;fill:rgb(0%,0%,0%);fill-opacity:1;" d="M 75.75 54.589844 C 75.761719 54.679688 75.78125 56.082031 75.785156 57.710938 C 75.804688 60.644531 75.804688 60.671875 75.738281 60.8125 C 75.632812 61.019531 75.492188 61.113281 75.242188 61.125 C 75.09375 61.136719 75.035156 61.152344 75.035156 61.1875 C 75.035156 61.226562 75.199219 61.234375 76.015625 61.234375 C 76.871094 61.234375 77 61.226562 77 61.183594 C 77 61.148438 76.960938 61.132812 76.851562 61.132812 C 76.558594 61.132812 76.339844 60.96875 76.265625 60.703125 C 76.242188 60.621094 76.238281 59.761719 76.238281 58.214844 L 76.25 55.851562 L 78.828125 58.601562 C 80.25 60.113281 81.441406 61.355469 81.476562 61.359375 C 81.53125 61.371094 81.539062 61.359375 81.523438 61.292969 C 81.457031 61.03125 81.429688 59.898438 81.441406 57.617188 C 81.449219 55.238281 81.453125 55.109375 81.511719 54.988281 C 81.601562 54.8125 81.792969 54.691406 82.019531 54.671875 C 82.144531 54.664062 82.199219 54.644531 82.199219 54.613281 C 82.199219 54.574219 82.03125 54.566406 81.214844 54.566406 C 80.363281 54.566406 80.234375 54.574219 80.234375 54.617188 C 80.234375 54.652344 80.273438 54.667969 80.390625 54.667969 C 80.613281 54.667969 80.816406 54.773438 80.917969 54.945312 L 81 55.089844 L 80.992188 57.511719 L 80.984375 59.929688 L 78.40625 57.179688 C 76.992188 55.671875 75.808594 54.433594 75.78125 54.433594 C 75.738281 54.433594 75.730469 54.460938 75.75 54.589844 Z M 75.75 54.589844 "/>
<path style=" stroke:none;fill-rule:nonzero;fill:rgb(0%,0%,0%);fill-opacity:1;" d="M 85.738281 54.484375 C 84.335938 54.730469 83.328125 55.742188 83.082031 57.148438 C 83.011719 57.582031 83.015625 58.324219 83.101562 58.742188 C 83.359375 60.015625 84.214844 60.925781 85.464844 61.257812 C 85.714844 61.324219 85.898438 61.34375 86.308594 61.355469 C 87.082031 61.382812 87.597656 61.285156 88.148438 61.007812 C 88.472656 60.847656 88.640625 60.726562 88.941406 60.441406 L 89.199219 60.191406 L 89.199219 59.34375 C 89.199219 58.257812 89.222656 58.191406 89.640625 58.148438 C 89.769531 58.132812 89.832031 58.109375 89.832031 58.078125 C 89.832031 58.039062 89.667969 58.035156 88.898438 58.035156 C 88.132812 58.035156 87.964844 58.039062 87.964844 58.078125 C 87.964844 58.109375 88.03125 58.132812 88.167969 58.148438 C 88.324219 58.167969 88.394531 58.191406 88.476562 58.265625 L 88.582031 58.359375 L 88.59375 59.308594 L 88.601562 60.261719 L 88.425781 60.398438 C 88.140625 60.628906 87.839844 60.789062 87.464844 60.914062 C 86.039062 61.390625 84.691406 60.851562 84.085938 59.5625 C 83.574219 58.476562 83.628906 56.992188 84.21875 55.984375 C 84.414062 55.65625 84.808594 55.253906 85.117188 55.074219 C 85.523438 54.835938 85.808594 54.761719 86.355469 54.738281 C 86.765625 54.726562 86.875 54.738281 87.148438 54.800781 C 87.953125 54.984375 88.566406 55.511719 88.804688 56.222656 C 88.84375 56.347656 88.890625 56.433594 88.921875 56.433594 C 88.949219 56.433594 88.960938 56.40625 88.945312 56.339844 C 88.941406 56.289062 88.894531 55.988281 88.851562 55.667969 C 88.804688 55.347656 88.753906 55.074219 88.738281 55.0625 C 88.683594 55.007812 88.195312 54.761719 87.984375 54.683594 C 87.550781 54.519531 87.230469 54.464844 86.601562 54.449219 C 86.179688 54.441406 85.941406 54.449219 85.738281 54.484375 Z M 85.738281 54.484375 "/>
<path style=" stroke:none;fill-rule:nonzero;fill:rgb(0%,0%,0%);fill-opacity:1;" d="M 10.167969 54.617188 C 10.167969 54.652344 10.203125 54.667969 10.285156 54.667969 C 10.417969 54.667969 10.617188 54.738281 10.714844 54.828125 C 10.746094 54.855469 10.804688 54.941406 10.835938 55.015625 C 10.898438 55.144531 10.898438 55.304688 10.898438 57.898438 C 10.898438 60.511719 10.898438 60.65625 10.835938 60.785156 C 10.746094 60.988281 10.570312 61.105469 10.347656 61.125 C 10.21875 61.136719 10.167969 61.15625 10.167969 61.191406 C 10.167969 61.230469 10.375 61.238281 11.660156 61.222656 C 13.316406 61.210938 13.316406 61.210938 13.796875 60.972656 C 14.453125 60.652344 14.800781 59.96875 14.699219 59.195312 C 14.644531 58.734375 14.484375 58.417969 14.15625 58.109375 C 13.917969 57.886719 13.625 57.726562 13.351562 57.664062 C 13.25 57.640625 13.167969 57.613281 13.167969 57.601562 C 13.167969 57.59375 13.238281 57.558594 13.320312 57.519531 C 13.53125 57.433594 13.835938 57.144531 13.957031 56.910156 C 14.101562 56.632812 14.144531 56.414062 14.125 56.042969 C 14.109375 55.769531 14.09375 55.699219 13.988281 55.488281 C 13.832031 55.171875 13.617188 54.96875 13.257812 54.800781 C 12.828125 54.597656 12.585938 54.566406 11.28125 54.566406 C 10.3125 54.566406 10.167969 54.574219 10.167969 54.617188 Z M 12.4375 54.914062 C 13.011719 55.035156 13.304688 55.363281 13.402344 56 C 13.449219 56.308594 13.398438 56.648438 13.261719 56.921875 C 13.066406 57.332031 12.6875 57.542969 12.027344 57.621094 C 11.921875 57.628906 11.832031 57.652344 11.832031 57.671875 C 11.832031 57.6875 11.839844 57.699219 11.847656 57.699219 C 12.011719 57.699219 12.609375 57.785156 12.792969 57.832031 C 13.59375 58.050781 14 58.578125 14 59.398438 C 14 59.855469 13.84375 60.253906 13.566406 60.511719 C 13.238281 60.824219 12.949219 60.898438 12.109375 60.898438 L 11.535156 60.898438 L 11.535156 54.867188 L 11.875 54.867188 C 12.0625 54.867188 12.316406 54.890625 12.4375 54.914062 Z M 12.4375 54.914062 "/>
<path style=" stroke:none;fill-rule:nonzero;fill:rgb(0%,0%,0%);fill-opacity:1;" d="M 15.667969 54.617188 C 15.667969 54.652344 15.703125 54.667969 15.808594 54.667969 C 16.011719 54.667969 16.171875 54.761719 16.261719 54.933594 L 16.332031 55.078125 L 16.332031 57.167969 C 16.332031 58.523438 16.347656 59.324219 16.371094 59.453125 C 16.535156 60.371094 17.277344 61.101562 18.238281 61.300781 C 18.839844 61.425781 19.601562 61.375 20.078125 61.179688 C 20.566406 60.984375 21.015625 60.574219 21.257812 60.117188 C 21.519531 59.605469 21.511719 59.71875 21.53125 57.214844 L 21.550781 54.984375 L 21.625 54.878906 C 21.714844 54.746094 21.886719 54.667969 22.0625 54.667969 C 22.164062 54.667969 22.199219 54.652344 22.199219 54.617188 C 22.199219 54.574219 22.078125 54.566406 21.316406 54.566406 C 20.589844 54.566406 20.433594 54.574219 20.433594 54.613281 C 20.433594 54.644531 20.488281 54.664062 20.613281 54.671875 C 20.851562 54.691406 21.015625 54.8125 21.066406 55.003906 C 21.09375 55.097656 21.101562 55.792969 21.09375 57.226562 C 21.078125 59.558594 21.085938 59.464844 20.832031 59.988281 C 20.609375 60.445312 20.191406 60.808594 19.691406 60.96875 C 19.480469 61.039062 19.390625 61.050781 18.964844 61.050781 C 18.519531 61.046875 18.464844 61.039062 18.253906 60.957031 C 17.636719 60.714844 17.238281 60.234375 17.027344 59.484375 C 16.953125 59.21875 16.953125 59.1875 16.949219 57.101562 L 16.949219 54.984375 L 17.023438 54.878906 C 17.117188 54.746094 17.285156 54.667969 17.464844 54.667969 C 17.5625 54.667969 17.601562 54.652344 17.601562 54.617188 C 17.601562 54.574219 17.46875 54.566406 16.632812 54.566406 C 15.796875 54.566406 15.667969 54.574219 15.667969 54.617188 Z M 15.667969 54.617188 "/>
<path style=" stroke:none;fill-rule:nonzero;fill:rgb(0%,0%,0%);fill-opacity:1;" d="M 38.066406 54.613281 C 38.066406 54.652344 38.101562 54.667969 38.183594 54.667969 C 38.457031 54.667969 38.742188 54.910156 38.785156 55.171875 C 38.792969 55.253906 38.800781 56.535156 38.792969 58.023438 L 38.785156 60.726562 L 38.683594 60.871094 C 38.558594 61.042969 38.398438 61.132812 38.210938 61.132812 C 38.101562 61.132812 38.066406 61.148438 38.066406 61.1875 C 38.066406 61.230469 38.222656 61.238281 39.542969 61.226562 C 41.191406 61.214844 41.1875 61.214844 41.6875 60.964844 C 42.136719 60.746094 42.460938 60.351562 42.5625 59.898438 C 42.617188 59.675781 42.605469 59.171875 42.550781 58.953125 C 42.382812 58.3125 41.855469 57.804688 41.214844 57.65625 L 41.023438 57.613281 L 41.21875 57.515625 C 41.46875 57.398438 41.757812 57.105469 41.875 56.855469 C 42.007812 56.585938 42.058594 56.203125 42.007812 55.898438 C 41.921875 55.398438 41.652344 55.042969 41.199219 54.824219 C 40.734375 54.597656 40.6875 54.589844 39.308594 54.574219 C 38.191406 54.5625 38.066406 54.566406 38.066406 54.613281 Z M 40.523438 54.964844 C 41.03125 55.144531 41.300781 55.582031 41.300781 56.238281 C 41.300781 57.042969 40.875 57.492188 40.011719 57.605469 C 39.855469 57.625 39.734375 57.65625 39.734375 57.671875 C 39.734375 57.6875 39.738281 57.699219 39.746094 57.699219 C 39.878906 57.699219 40.5 57.785156 40.648438 57.820312 C 41.503906 58.035156 41.957031 58.660156 41.886719 59.523438 C 41.835938 60.160156 41.519531 60.613281 40.992188 60.800781 C 40.808594 60.867188 40.703125 60.878906 40.09375 60.894531 L 39.398438 60.90625 L 39.398438 57.910156 C 39.398438 56.261719 39.410156 54.898438 39.425781 54.886719 C 39.441406 54.871094 39.648438 54.867188 39.882812 54.875 C 40.210938 54.890625 40.367188 54.910156 40.523438 54.964844 Z M 40.523438 54.964844 "/>
<path style=" stroke:none;fill-rule:nonzero;fill:rgb(0%,0%,0%);fill-opacity:1;" d="M 64.464844 54.617188 C 64.464844 54.652344 64.503906 54.667969 64.582031 54.667969 C 64.648438 54.667969 64.75 54.6875 64.808594 54.714844 C 64.941406 54.765625 65.125 54.964844 65.15625 55.09375 C 65.171875 55.144531 65.183594 56.40625 65.183594 57.898438 C 65.183594 59.394531 65.171875 60.65625 65.15625 60.707031 C 65.125 60.824219 64.953125 61.019531 64.828125 61.085938 C 64.78125 61.109375 64.675781 61.132812 64.601562 61.132812 C 64.503906 61.132812 64.464844 61.148438 64.464844 61.1875 C 64.464844 61.230469 64.671875 61.238281 66.425781 61.226562 L 68.382812 61.214844 L 68.703125 61.125 C 69.789062 60.828125 70.582031 60.113281 70.921875 59.117188 C 71.101562 58.597656 71.152344 57.785156 71.050781 57.191406 C 70.808594 55.796875 69.757812 54.8125 68.285156 54.601562 C 68.148438 54.582031 67.277344 54.566406 66.261719 54.566406 C 64.6875 54.566406 64.464844 54.574219 64.464844 54.617188 Z M 68.351562 54.929688 C 68.8125 55.042969 69.152344 55.226562 69.492188 55.542969 C 70.152344 56.167969 70.484375 57.199219 70.375 58.292969 C 70.261719 59.429688 69.734375 60.273438 68.882812 60.683594 C 68.355469 60.9375 68.277344 60.945312 66.964844 60.949219 L 65.816406 60.949219 L 65.808594 57.90625 L 65.800781 54.867188 L 66.941406 54.867188 C 67.953125 54.867188 68.113281 54.875 68.351562 54.929688 Z M 68.351562 54.929688 "/>
<path style=" stroke:none;fill-rule:nonzero;fill:rgb(0%,0%,0%);fill-opacity:1;" d="M 71.964844 54.617188 C 71.964844 54.652344 72.003906 54.667969 72.082031 54.667969 C 72.335938 54.667969 72.59375 54.867188 72.667969 55.125 C 72.691406 55.214844 72.699219 56.070312 72.691406 57.964844 C 72.683594 60.554688 72.679688 60.691406 72.621094 60.808594 C 72.527344 61 72.363281 61.109375 72.148438 61.125 C 72.023438 61.136719 71.964844 61.15625 71.964844 61.1875 C 71.964844 61.226562 72.148438 61.234375 73.015625 61.234375 C 73.925781 61.234375 74.066406 61.226562 74.066406 61.183594 C 74.066406 61.148438 74.027344 61.132812 73.914062 61.132812 C 73.742188 61.132812 73.660156 61.101562 73.523438 60.96875 C 73.304688 60.769531 73.316406 60.949219 73.308594 58.015625 C 73.300781 56.15625 73.308594 55.300781 73.335938 55.171875 C 73.398438 54.867188 73.636719 54.667969 73.933594 54.667969 C 74.03125 54.667969 74.066406 54.652344 74.066406 54.617188 C 74.066406 54.574219 73.925781 54.566406 73.015625 54.566406 C 72.105469 54.566406 71.964844 54.574219 71.964844 54.617188 Z M 71.964844 54.617188 "/>
<path style=" stroke:none;fill-rule:nonzero;fill:rgb(0%,0%,0%);fill-opacity:1;" d="M 39.492188 63.472656 C 39.425781 63.496094 39.296875 63.664062 39.011719 64.085938 C 38.800781 64.40625 38.609375 64.675781 38.59375 64.6875 C 38.574219 64.699219 38.023438 64.714844 37.371094 64.714844 C 35.875 64.726562 35.511719 64.761719 35.625 64.871094 C 35.671875 64.917969 35.746094 64.917969 37.261719 64.882812 C 38.285156 64.859375 38.464844 64.863281 38.464844 64.902344 C 38.464844 64.929688 38.226562 65.382812 37.9375 65.917969 C 37.453125 66.800781 37.394531 66.894531 37.230469 67.023438 C 36.726562 67.425781 35.894531 67.910156 35.375 68.101562 C 35.007812 68.234375 34.433594 68.34375 34.324219 68.304688 C 34.148438 68.238281 34.117188 68.011719 34.246094 67.785156 C 34.347656 67.613281 34.417969 67.578125 34.75 67.53125 C 35.265625 67.457031 35.753906 67.21875 36.105469 66.867188 C 36.351562 66.625 36.402344 66.511719 36.324219 66.386719 C 36.261719 66.289062 36.132812 66.261719 35.898438 66.296875 C 35.5625 66.339844 34.929688 66.742188 34.457031 67.214844 C 34.132812 67.535156 34.015625 67.714844 33.964844 67.953125 C 33.875 68.394531 34.148438 68.589844 34.714844 68.5 C 35.355469 68.398438 36.1875 68.011719 36.941406 67.464844 C 37.066406 67.375 37.167969 67.3125 37.167969 67.328125 C 37.167969 67.34375 36.996094 67.71875 36.785156 68.171875 C 36.320312 69.171875 36.261719 69.355469 36.378906 69.515625 C 36.421875 69.578125 36.425781 69.574219 36.484375 69.488281 C 36.511719 69.441406 36.578125 69.28125 36.621094 69.128906 C 36.796875 68.523438 37.707031 66.679688 38.492188 65.34375 C 38.675781 65.027344 38.730469 64.960938 38.824219 64.929688 C 38.898438 64.90625 39.210938 64.898438 39.714844 64.90625 C 40.144531 64.910156 40.507812 64.90625 40.519531 64.890625 C 40.535156 64.875 40.527344 64.847656 40.503906 64.824219 C 40.472656 64.792969 40.242188 64.78125 39.667969 64.773438 C 39.171875 64.765625 38.867188 64.75 38.867188 64.730469 C 38.867188 64.648438 39.351562 63.992188 39.53125 63.828125 C 39.738281 63.636719 39.769531 63.574219 39.679688 63.488281 C 39.625 63.425781 39.617188 63.425781 39.492188 63.472656 Z M 35.996094 66.496094 C 36.035156 66.519531 36.03125 66.546875 35.984375 66.648438 C 35.914062 66.796875 35.65625 67.003906 35.375 67.136719 C 35.164062 67.238281 34.644531 67.386719 34.609375 67.355469 C 34.582031 67.328125 34.910156 67.046875 35.222656 66.835938 C 35.453125 66.679688 35.851562 66.464844 35.910156 66.464844 C 35.933594 66.464844 35.96875 66.480469 35.996094 66.496094 Z M 35.996094 66.496094 "/>
<path style=" stroke:none;fill-rule:nonzero;fill:rgb(0%,0%,0%);fill-opacity:1;" d="M 59.78125 63.460938 C 59.738281 63.488281 59.25 64.191406 59.082031 64.457031 C 58.90625 64.738281 58.9375 64.734375 57.449219 64.738281 C 56.738281 64.738281 56.105469 64.75 56.050781 64.761719 C 55.996094 64.773438 55.945312 64.808594 55.941406 64.835938 C 55.933594 64.882812 56 64.894531 56.4375 64.910156 C 56.714844 64.921875 57.351562 64.933594 57.855469 64.933594 C 58.355469 64.933594 58.765625 64.941406 58.765625 64.957031 C 58.765625 64.964844 58.648438 65.191406 58.503906 65.445312 C 58.359375 65.707031 58.15625 66.078125 58.058594 66.277344 C 57.832031 66.703125 57.679688 66.925781 57.488281 67.078125 C 57.355469 67.1875 56.125 67.863281 55.671875 68.078125 C 55.507812 68.152344 55.457031 68.167969 55.417969 68.132812 C 55.335938 68.066406 55.355469 67.882812 55.484375 67.496094 C 55.546875 67.296875 55.601562 67.113281 55.601562 67.082031 C 55.601562 67.046875 55.5625 67.035156 55.464844 67.035156 C 55.347656 67.035156 55.246094 67.089844 54.714844 67.4375 C 54.101562 67.839844 53.5625 68.125 53.351562 68.15625 C 53.0625 68.203125 53.011719 67.988281 53.242188 67.679688 C 53.617188 67.171875 54.210938 66.761719 54.769531 66.617188 C 55.015625 66.554688 55.101562 66.566406 55.222656 66.699219 C 55.316406 66.808594 55.394531 66.828125 55.460938 66.761719 C 55.527344 66.691406 55.507812 66.601562 55.402344 66.496094 C 55.308594 66.402344 55.292969 66.398438 55.011719 66.398438 C 54.742188 66.398438 54.691406 66.410156 54.480469 66.511719 C 54.167969 66.664062 53.664062 66.964844 53.050781 67.378906 C 52.214844 67.9375 51.625 68.207031 51.03125 68.300781 C 50.738281 68.347656 50.613281 68.3125 50.539062 68.160156 C 50.480469 68.035156 50.542969 67.816406 50.675781 67.683594 C 50.761719 67.597656 50.820312 67.574219 50.984375 67.554688 C 51.457031 67.5 51.730469 67.398438 52.109375 67.136719 C 52.457031 66.894531 52.710938 66.628906 52.710938 66.503906 C 52.710938 66.300781 52.570312 66.238281 52.21875 66.304688 C 51.960938 66.347656 51.859375 66.410156 51.183594 66.949219 C 50.601562 67.421875 50.492188 67.523438 50.398438 67.71875 C 50.285156 67.957031 50.273438 68.1875 50.375 68.332031 C 50.480469 68.488281 50.625 68.535156 50.917969 68.515625 C 51.242188 68.488281 51.417969 68.433594 52.171875 68.113281 C 52.535156 67.960938 52.835938 67.832031 52.839844 67.832031 C 52.847656 67.832031 52.847656 67.898438 52.839844 67.984375 C 52.8125 68.3125 52.933594 68.421875 53.28125 68.386719 C 53.554688 68.359375 53.890625 68.191406 54.53125 67.769531 C 54.808594 67.585938 55.054688 67.433594 55.070312 67.433594 C 55.089844 67.433594 55.097656 67.601562 55.09375 67.828125 C 55.078125 68.308594 55.109375 68.367188 55.367188 68.367188 C 55.492188 68.367188 55.59375 68.328125 55.851562 68.195312 C 56.515625 67.851562 57.058594 67.554688 57.28125 67.410156 C 57.449219 67.300781 57.503906 67.277344 57.488281 67.324219 C 57.480469 67.355469 57.304688 67.742188 57.101562 68.183594 C 56.691406 69.054688 56.597656 69.34375 56.664062 69.488281 L 56.703125 69.578125 L 56.78125 69.496094 C 56.828125 69.449219 56.902344 69.277344 56.964844 69.078125 C 57.164062 68.421875 58.023438 66.6875 58.808594 65.355469 C 58.972656 65.074219 59.0625 64.953125 59.125 64.925781 C 59.1875 64.902344 59.464844 64.898438 59.957031 64.914062 C 60.449219 64.925781 60.726562 64.921875 60.789062 64.898438 L 60.882812 64.859375 L 60.800781 64.816406 C 60.742188 64.785156 60.582031 64.765625 60.300781 64.761719 C 60.070312 64.761719 59.722656 64.75 59.527344 64.738281 L 59.167969 64.714844 L 59.394531 64.394531 C 59.632812 64.050781 59.746094 63.914062 59.941406 63.738281 C 60.011719 63.679688 60.066406 63.613281 60.066406 63.585938 C 60.066406 63.480469 59.875 63.394531 59.78125 63.460938 Z M 52.367188 66.5625 C 52.367188 66.632812 52.324219 66.699219 52.191406 66.828125 C 51.976562 67.023438 51.71875 67.160156 51.328125 67.28125 C 50.882812 67.417969 50.863281 67.398438 51.191406 67.125 C 51.585938 66.804688 52.152344 66.464844 52.308594 66.464844 C 52.351562 66.464844 52.367188 66.492188 52.367188 66.5625 Z M 52.367188 66.5625 "/>
<path style=" stroke:none;fill-rule:nonzero;fill:rgb(0%,0%,0%);fill-opacity:1;" d="M 67.351562 63.488281 C 67.320312 63.515625 67.140625 63.777344 66.945312 64.066406 C 66.753906 64.355469 66.566406 64.621094 66.527344 64.652344 C 66.464844 64.714844 66.359375 64.714844 65.03125 64.734375 C 63.566406 64.75 63.445312 64.761719 63.5625 64.875 C 63.59375 64.90625 63.914062 64.914062 64.984375 64.90625 C 65.738281 64.898438 66.367188 64.90625 66.375 64.921875 C 66.382812 64.9375 66.140625 65.40625 65.835938 65.964844 L 65.28125 66.976562 L 64.914062 67.308594 C 64.351562 67.828125 63.421875 68.492188 63.160156 68.570312 C 63.082031 68.589844 63.050781 68.582031 62.996094 68.53125 C 62.917969 68.449219 62.917969 68.40625 63 68.089844 C 63.136719 67.542969 63.441406 67.007812 63.824219 66.617188 C 64.054688 66.382812 64.113281 66.289062 64.082031 66.195312 C 64.0625 66.140625 64.035156 66.128906 63.921875 66.140625 L 63.785156 66.148438 L 63.480469 66.648438 C 62.972656 67.464844 62.78125 67.902344 62.742188 68.332031 C 62.730469 68.519531 62.738281 68.5625 62.796875 68.640625 C 62.960938 68.84375 63.277344 68.785156 63.757812 68.46875 C 64.101562 68.242188 64.226562 68.140625 64.714844 67.691406 C 64.917969 67.503906 65.070312 67.375 65.058594 67.398438 C 65.046875 67.425781 64.878906 67.792969 64.683594 68.214844 C 64.308594 69.027344 64.199219 69.351562 64.265625 69.496094 L 64.304688 69.578125 L 64.378906 69.496094 C 64.425781 69.449219 64.503906 69.277344 64.5625 69.074219 C 64.8125 68.261719 66.464844 65.070312 66.703125 64.941406 C 66.765625 64.902344 66.953125 64.898438 67.566406 64.914062 C 68.191406 64.929688 68.367188 64.921875 68.414062 64.890625 C 68.46875 64.847656 68.46875 64.84375 68.378906 64.808594 C 68.328125 64.789062 67.957031 64.761719 67.554688 64.753906 C 67.152344 64.742188 66.816406 64.726562 66.808594 64.714844 C 66.796875 64.707031 66.90625 64.527344 67.050781 64.3125 C 67.230469 64.046875 67.367188 63.878906 67.488281 63.785156 C 67.675781 63.640625 67.703125 63.578125 67.605469 63.488281 C 67.53125 63.421875 67.421875 63.417969 67.351562 63.488281 Z M 67.351562 63.488281 "/>
<path style=" stroke:none;fill-rule:nonzero;fill:rgb(0%,0%,0%);fill-opacity:1;" d="M 34.472656 64.089844 C 34.230469 64.304688 32.671875 67.152344 32.082031 68.464844 C 31.808594 69.078125 31.535156 69.773438 31.535156 69.855469 C 31.535156 69.902344 31.578125 69.980469 31.628906 70.035156 C 31.722656 70.125 31.742188 70.132812 31.992188 70.132812 C 32.140625 70.132812 32.4375 70.101562 32.648438 70.066406 C 33.675781 69.890625 34.683594 69.351562 34.582031 69.035156 C 34.566406 68.976562 34.535156 68.988281 34.289062 69.179688 C 33.980469 69.414062 33.644531 69.566406 33.179688 69.6875 C 32.785156 69.785156 32.054688 69.875 31.945312 69.828125 C 31.792969 69.773438 31.851562 69.558594 32.21875 68.746094 C 32.957031 67.144531 33.773438 65.636719 34.5 64.550781 C 34.769531 64.148438 34.792969 64.082031 34.703125 64.035156 C 34.609375 63.988281 34.59375 63.988281 34.472656 64.089844 Z M 34.472656 64.089844 "/>
<path style=" stroke:none;fill-rule:nonzero;fill:rgb(0%,0%,0%);fill-opacity:1;" d="M 40.789062 64.9375 C 40.664062 65.195312 40.578125 65.324219 40.359375 65.550781 C 40.0625 65.863281 40.039062 65.96875 40.308594 65.804688 C 40.550781 65.648438 40.71875 65.480469 40.871094 65.238281 C 41.023438 64.996094 41.074219 64.761719 40.992188 64.664062 C 40.957031 64.617188 40.929688 64.648438 40.789062 64.9375 Z M 40.789062 64.9375 "/>
<path style=" stroke:none;fill-rule:nonzero;fill:rgb(0%,0%,0%);fill-opacity:1;" d="M 64.558594 65.277344 C 64.453125 65.355469 64.414062 65.414062 64.40625 65.488281 C 64.390625 65.660156 64.496094 65.664062 64.730469 65.5 C 64.953125 65.34375 64.992188 65.277344 64.910156 65.214844 C 64.8125 65.140625 64.714844 65.160156 64.558594 65.277344 Z M 64.558594 65.277344 "/>
<path style=" stroke:none;fill-rule:nonzero;fill:rgb(0%,0%,0%);fill-opacity:1;" d="M 42.207031 65.835938 C 41.921875 65.875 41.605469 66.027344 41.375 66.238281 C 41.011719 66.582031 40.953125 66.886719 41.132812 67.464844 C 41.191406 67.648438 41.222656 67.816406 41.214844 67.847656 C 41.203125 67.875 41.097656 67.976562 40.980469 68.066406 C 39.882812 68.929688 38.933594 69.984375 38.933594 70.335938 C 38.933594 70.441406 39.011719 70.5 39.144531 70.5 C 39.238281 70.5 39.851562 70.289062 40.050781 70.191406 C 40.5 69.964844 41.011719 69.511719 41.226562 69.15625 C 41.382812 68.898438 41.492188 68.5625 41.515625 68.269531 C 41.527344 68.128906 41.542969 67.984375 41.550781 67.945312 C 41.566406 67.867188 42.847656 67.003906 43.214844 66.824219 C 43.328125 66.765625 43.421875 66.714844 43.433594 66.710938 C 43.464844 66.683594 43.347656 66.632812 43.246094 66.632812 C 43.101562 66.632812 42.882812 66.753906 42.136719 67.246094 C 41.746094 67.5 41.492188 67.648438 41.484375 67.625 C 41.476562 67.601562 41.441406 67.488281 41.398438 67.367188 C 41.238281 66.878906 41.25 66.714844 41.472656 66.492188 C 41.65625 66.308594 42.101562 66.101562 42.382812 66.066406 C 42.582031 66.042969 42.734375 65.96875 42.734375 65.898438 C 42.734375 65.863281 42.570312 65.800781 42.488281 65.804688 C 42.449219 65.808594 42.320312 65.820312 42.207031 65.835938 Z M 41.265625 68.238281 C 41.261719 68.398438 41.136719 68.753906 41 68.984375 C 40.847656 69.238281 40.375 69.738281 40.117188 69.910156 C 39.839844 70.101562 39.585938 70.195312 39.375 70.199219 L 39.195312 70.199219 L 39.285156 70.035156 C 39.402344 69.816406 39.816406 69.347656 40.203125 68.992188 C 40.542969 68.679688 41.199219 68.136719 41.242188 68.132812 C 41.257812 68.132812 41.265625 68.183594 41.265625 68.238281 Z M 41.265625 68.238281 "/>
<path style=" stroke:none;fill-rule:nonzero;fill:rgb(0%,0%,0%);fill-opacity:1;" d="M 48.867188 65.875 C 48.8125 65.902344 48.699219 66.078125 48.535156 66.378906 C 48.257812 66.890625 48.21875 66.929688 47.582031 67.363281 C 46.753906 67.929688 45.917969 68.285156 45.246094 68.351562 C 44.90625 68.390625 44.820312 68.28125 44.921875 67.941406 C 45.09375 67.332031 45.890625 66.589844 46.625 66.351562 C 46.863281 66.269531 46.933594 66.3125 46.933594 66.535156 C 46.933594 66.625 46.941406 66.699219 46.960938 66.699219 C 46.972656 66.699219 47.035156 66.671875 47.09375 66.632812 C 47.175781 66.582031 47.199219 66.546875 47.199219 66.464844 C 47.199219 66.238281 47.050781 66.132812 46.738281 66.132812 C 46.269531 66.132812 45.382812 66.769531 44.933594 67.433594 C 44.441406 68.152344 44.527344 68.632812 45.144531 68.632812 C 45.503906 68.632812 46.558594 68.199219 47.316406 67.734375 C 47.535156 67.601562 47.769531 67.460938 47.832031 67.421875 L 47.949219 67.351562 L 47.878906 67.464844 C 47.839844 67.53125 47.71875 67.726562 47.609375 67.898438 C 47.5 68.074219 47.398438 68.25 47.386719 68.292969 C 47.355469 68.390625 47.417969 68.46875 47.496094 68.441406 C 47.527344 68.425781 47.894531 68.058594 48.3125 67.625 C 49.097656 66.808594 49.214844 66.699219 49.320312 66.699219 C 49.351562 66.699219 49.464844 66.761719 49.574219 66.832031 C 49.675781 66.90625 49.828125 66.988281 49.902344 67.015625 C 50.171875 67.113281 50.648438 67.054688 50.832031 66.90625 C 50.90625 66.847656 50.898438 66.847656 50.511719 66.847656 C 50.0625 66.851562 49.945312 66.808594 49.671875 66.558594 C 49.496094 66.398438 49.398438 66.351562 49.28125 66.378906 C 49.222656 66.398438 49.015625 66.578125 48.730469 66.875 C 48.476562 67.136719 48.261719 67.339844 48.253906 67.328125 C 48.242188 67.320312 48.371094 67.085938 48.539062 66.8125 C 48.972656 66.101562 49 66.058594 49 65.984375 C 49 65.863281 48.957031 65.828125 48.867188 65.875 Z M 48.867188 65.875 "/>
<path style=" stroke:none;fill-rule:nonzero;fill:rgb(0%,0%,0%);fill-opacity:1;" d="M 59.960938 66.3125 C 59.738281 66.394531 58.671875 67.210938 58.464844 67.460938 C 58.191406 67.789062 58.121094 68.164062 58.285156 68.363281 C 58.414062 68.515625 58.574219 68.554688 58.917969 68.503906 C 59.667969 68.398438 60.683594 67.894531 61.515625 67.207031 C 61.804688 66.96875 61.863281 66.90625 61.867188 66.839844 C 61.867188 66.773438 61.8125 66.792969 61.59375 66.949219 C 60.386719 67.808594 59.84375 68.082031 59.011719 68.265625 C 58.617188 68.351562 58.613281 68.351562 58.496094 68.238281 C 58.382812 68.121094 58.375 68.015625 58.464844 67.835938 C 58.558594 67.648438 58.671875 67.574219 58.894531 67.550781 C 59.363281 67.492188 59.773438 67.328125 60.171875 67.035156 C 60.570312 66.742188 60.695312 66.480469 60.511719 66.335938 C 60.410156 66.253906 60.152344 66.242188 59.960938 66.3125 Z M 60.261719 66.5625 C 60.277344 66.679688 59.96875 66.964844 59.664062 67.113281 C 59.429688 67.226562 58.90625 67.382812 58.875 67.351562 C 58.789062 67.265625 60.007812 66.453125 60.183594 66.472656 C 60.222656 66.480469 60.253906 66.511719 60.261719 66.5625 Z M 60.261719 66.5625 "/>
</g>
</svg>
