<?xml version="1.0" encoding="UTF-8"?>
<svg xmlns="http://www.w3.org/2000/svg" xmlns:xlink="http://www.w3.org/1999/xlink" width="500pt" height="500pt" viewBox="0 0 500 500" version="1.1">
<g id="surface1">
<path style=" stroke:none;fill-rule:nonzero;fill:rgb(0%,0%,0%);fill-opacity:1;" d="M 206.964844 147.714844 C 206.148438 147.949219 205.933594 148.082031 205.015625 148.898438 C 203.117188 150.632812 203.214844 154.035156 205.199219 155.734375 C 206.582031 156.917969 203.484375 156.832031 243.484375 156.832031 L 279.582031 156.816406 L 278.5 155.800781 C 275.132812 152.667969 269.117188 149.785156 263.417969 148.601562 C 258.632812 147.601562 259.132812 147.617188 232.332031 147.566406 C 212.398438 147.515625 207.601562 147.550781 206.964844 147.714844 Z M 206.964844 147.714844 "/>
<path style=" stroke:none;fill-rule:nonzero;fill:rgb(0%,0%,0%);fill-opacity:1;" d="M 278.117188 148.699219 C 280.550781 150.285156 281.648438 151.148438 283.484375 152.917969 C 288.851562 158.082031 291.800781 164.285156 292.851562 172.667969 C 293.117188 174.699219 293.117188 179.183594 292.851562 180.984375 C 292.050781 186.5 289.75 191.214844 285.949219 195.117188 L 284.617188 196.484375 L 286 197.765625 C 293.898438 205.214844 297.316406 215.015625 295.75 225.765625 C 294.199219 236.332031 289.015625 243.949219 279.917969 249.035156 L 278.75 249.699219 L 281.332031 249.601562 C 289.816406 249.300781 298.015625 246.964844 303.417969 243.351562 C 309.917969 239.015625 313.667969 232.433594 314.484375 223.933594 C 315.316406 215.484375 312.964844 208.316406 307.566406 202.734375 C 305.5 200.617188 303.566406 199.234375 300.535156 197.683594 C 298.785156 196.785156 298.785156 196.785156 299.933594 196.199219 C 303.066406 194.617188 306.433594 191.683594 308.234375 188.949219 C 310.714844 185.214844 311.851562 180.75 311.601562 175.714844 C 311.066406 164.433594 306.351562 156.648438 297.167969 151.933594 C 291.832031 149.199219 286.433594 147.984375 277.867188 147.617188 L 276.332031 147.550781 Z M 278.117188 148.699219 "/>
<path style=" stroke:none;fill-rule:nonzero;fill:rgb(0%,0%,0%);fill-opacity:1;" d="M 220.332031 166.316406 C 219.566406 166.550781 218.917969 166.964844 218.316406 167.617188 C 217.300781 168.667969 217.082031 169.234375 217.082031 170.832031 C 217.082031 172.082031 217.132812 172.351562 217.535156 173.035156 C 217.800781 173.449219 218.316406 174.082031 218.699219 174.398438 C 220.066406 175.582031 217.515625 175.5 254.132812 175.5 L 287.199219 175.5 L 287.082031 174.367188 C 286.816406 171.550781 286.464844 169.632812 285.800781 167.367188 L 285.449219 166.167969 L 253.101562 166.183594 C 235.300781 166.183594 220.566406 166.25 220.332031 166.316406 Z M 220.332031 166.316406 "/>
<path style=" stroke:none;fill-rule:nonzero;fill:rgb(0%,0%,0%);fill-opacity:1;" d="M 206.332031 185.183594 C 204.617188 185.949219 203.667969 187.464844 203.667969 189.417969 C 203.683594 191.316406 204.550781 192.75 206.199219 193.566406 L 207.066406 194 L 278.882812 194 L 279.785156 193.316406 C 280.898438 192.433594 282.417969 190.832031 283.417969 189.433594 C 284.117188 188.449219 285.832031 185.285156 285.832031 184.949219 C 285.832031 184.882812 268.117188 184.832031 246.464844 184.832031 C 207.214844 184.832031 207.082031 184.851562 206.332031 185.183594 Z M 206.332031 185.183594 "/>
<path style=" stroke:none;fill-rule:nonzero;fill:rgb(0%,0%,0%);fill-opacity:1;" d="M 191.183594 190.933594 C 188.25 191.714844 186 194.234375 185.464844 197.300781 C 184.867188 200.785156 186.683594 204.234375 189.917969 205.785156 C 191.015625 206.300781 191.398438 206.398438 192.765625 206.464844 C 194.714844 206.566406 196.082031 206.234375 197.464844 205.332031 C 198.582031 204.617188 199.832031 203.316406 200.300781 202.398438 C 201.214844 200.601562 201.433594 198.066406 200.851562 196.183594 C 199.617188 192.199219 195.265625 189.832031 191.183594 190.933594 Z M 191.183594 190.933594 "/>
<path style=" stroke:none;fill-rule:nonzero;fill:rgb(0%,0%,0%);fill-opacity:1;" d="M 207.25 203.332031 C 206.316406 203.566406 205.851562 203.816406 205.148438 204.449219 C 203.117188 206.285156 203.148438 209.648438 205.199219 211.398438 C 206.582031 212.601562 202.964844 212.5 248.132812 212.5 L 288.867188 212.5 L 288.75 212.035156 C 288.300781 210.199219 286.484375 206.667969 285 204.699219 L 283.898438 203.25 L 245.816406 203.234375 C 224.882812 203.214844 207.535156 203.265625 207.25 203.332031 Z M 207.25 203.332031 "/>
<path style=" stroke:none;fill-rule:nonzero;fill:rgb(0%,0%,0%);fill-opacity:1;" d="M 220.332031 221.984375 C 219.515625 222.234375 218.898438 222.648438 218.234375 223.367188 C 217.265625 224.398438 216.933594 225.382812 217.035156 226.816406 C 217.132812 228.183594 217.632812 229.167969 218.699219 230.082031 C 220.066406 231.25 217.464844 231.167969 254.832031 231.132812 L 288.582031 231.082031 L 288.964844 229.917969 C 289.550781 228.101562 290.015625 225.582031 290.117188 223.617188 L 290.214844 221.832031 L 255.484375 221.851562 C 236.382812 221.851562 220.566406 221.917969 220.332031 221.984375 Z M 220.332031 221.984375 "/>
<path style=" stroke:none;fill-rule:nonzero;fill:rgb(0%,0%,0%);fill-opacity:1;" d="M 207.382812 240.5 C 205.101562 240.964844 203.683594 242.734375 203.667969 245.082031 C 203.667969 247.050781 204.632812 248.566406 206.367188 249.332031 L 207.167969 249.683594 L 231.785156 249.667969 C 246.648438 249.667969 257.214844 249.601562 258.417969 249.5 C 263.566406 249.066406 268.816406 247.984375 272.667969 246.550781 C 275.851562 245.367188 279.449219 243.25 281.75 241.199219 L 282.550781 240.5 L 245.800781 240.5 C 225.582031 240.5 208.832031 240.464844 208.566406 240.433594 C 208.300781 240.382812 207.765625 240.417969 207.382812 240.5 Z M 207.382812 240.5 "/>
<path style=" stroke:none;fill-rule:nonzero;fill:rgb(0%,0%,0%);fill-opacity:1;" d="M 116.832031 274.984375 C 116.832031 277.417969 116.882812 278 117.066406 278 C 117.214844 278 117.316406 277.699219 117.382812 277.082031 C 117.5 275.964844 117.964844 275.148438 118.800781 274.632812 L 119.417969 274.25 L 127.800781 274.199219 C 132.398438 274.183594 136.167969 274.199219 136.167969 274.25 C 136.167969 274.316406 131.667969 281.449219 126.167969 290.117188 C 120.667969 298.785156 116.167969 305.933594 116.167969 306.015625 C 116.167969 306.101562 121.550781 306.167969 128.714844 306.167969 L 141.285156 306.167969 L 141.984375 302.851562 C 142.367188 301.015625 142.734375 299.367188 142.785156 299.183594 C 142.851562 298.933594 142.800781 298.832031 142.617188 298.832031 C 142.449219 298.832031 142.25 299.148438 142.082031 299.648438 C 141.417969 301.683594 139.882812 303.535156 138.265625 304.285156 L 137.25 304.75 L 129.015625 304.800781 C 121.800781 304.851562 120.800781 304.816406 120.882812 304.601562 C 120.933594 304.464844 125.484375 297.234375 130.984375 288.535156 C 136.5 279.832031 141 272.582031 141 272.417969 C 141 272.214844 140.917969 272.167969 140.734375 272.234375 C 139.617188 272.667969 137.632812 272.75 129.417969 272.75 C 120.484375 272.75 120.617188 272.75 117.382812 272.066406 L 116.832031 271.949219 Z M 116.832031 274.984375 "/>
<path style=" stroke:none;fill-rule:nonzero;fill:rgb(0%,0%,0%);fill-opacity:1;" d="M 148 274.984375 C 148 277.550781 148.035156 278 148.25 278 C 148.433594 278 148.5 277.800781 148.5 277.167969 C 148.5 276.699219 148.617188 276.101562 148.75 275.851562 C 149.082031 275.199219 149.898438 274.550781 150.632812 274.332031 C 151.382812 274.132812 167.167969 274.101562 167.167969 274.300781 C 167.167969 274.382812 162.699219 281.484375 157.25 290.066406 C 151.800781 298.667969 147.332031 305.800781 147.332031 305.933594 C 147.332031 306.132812 149.265625 306.167969 159.832031 306.167969 L 172.332031 306.167969 L 172.417969 305.785156 C 172.683594 304.617188 173.832031 299.148438 173.832031 299 C 173.832031 298.917969 173.734375 298.832031 173.617188 298.832031 C 173.5 298.832031 173.25 299.265625 173.082031 299.785156 C 172.398438 301.800781 170.734375 303.75 169.167969 304.367188 C 168.265625 304.734375 168.101562 304.75 160.050781 304.800781 C 155.535156 304.832031 151.832031 304.816406 151.832031 304.765625 C 151.832031 304.714844 156.382812 297.5 161.933594 288.714844 C 167.5 279.933594 172.082031 272.617188 172.132812 272.433594 C 172.199219 272.199219 172.148438 272.148438 171.898438 272.214844 C 170.382812 272.683594 168.882812 272.75 160.582031 272.75 C 151.800781 272.75 150.933594 272.699219 148.382812 272.050781 L 148 271.964844 Z M 148 274.984375 "/>
<path style=" stroke:none;fill-rule:nonzero;fill:rgb(0%,0%,0%);fill-opacity:1;" d="M 262.265625 273.082031 C 261.882812 274.367188 249.734375 303.132812 249.285156 303.785156 C 248.851562 304.433594 247.816406 305.199219 247.035156 305.464844 C 245.867188 305.867188 243.917969 304.816406 241.785156 302.617188 C 240.515625 301.316406 238.117188 298.234375 236 295.25 C 234.683594 293.367188 233.285156 291.765625 232.648438 291.382812 C 232.382812 291.214844 232.167969 291.050781 232.167969 290.984375 C 232.167969 290.933594 232.582031 290.832031 233.082031 290.785156 C 234.984375 290.582031 237.285156 288.898438 238.582031 286.75 C 239.535156 285.167969 239.898438 283.714844 239.898438 281.667969 C 239.898438 277.082031 237.484375 273.984375 233.234375 273.082031 C 231.5 272.714844 217.832031 272.714844 217.832031 273.082031 C 217.832031 273.265625 218.015625 273.332031 218.417969 273.332031 C 219.683594 273.332031 220.964844 274.351562 221.316406 275.617188 C 221.566406 276.484375 221.566406 302.515625 221.316406 303.382812 C 221.117188 304.101562 220.332031 305.066406 219.648438 305.433594 C 219.398438 305.550781 218.882812 305.667969 218.5 305.667969 C 218.015625 305.667969 217.832031 305.734375 217.832031 305.917969 C 217.832031 306.132812 218.515625 306.167969 223 306.167969 C 227.484375 306.167969 228.167969 306.132812 228.167969 305.917969 C 228.167969 305.734375 227.984375 305.667969 227.5 305.667969 C 226.566406 305.667969 225.582031 305.117188 225.050781 304.300781 L 224.582031 303.601562 L 224.535156 288.949219 L 224.5 274.300781 L 228.035156 274.367188 C 232.167969 274.449219 232.683594 274.582031 234.050781 275.832031 C 235.632812 277.285156 236.332031 279.132812 236.332031 281.949219 C 236.332031 285.148438 234.984375 287.535156 232.535156 288.617188 C 231.5 289.066406 228.964844 289.5 227.285156 289.5 C 226.449219 289.5 226.148438 289.550781 226.199219 289.699219 C 226.25 289.816406 226.5 289.949219 226.785156 290.015625 C 228.300781 290.316406 229.449219 291.582031 233.5 297.433594 C 237.117188 302.632812 238.351562 304.035156 240.285156 305.050781 C 242.449219 306.183594 243.515625 306.300781 251.300781 306.199219 C 254.316406 306.167969 254.832031 306.132812 254.832031 305.917969 C 254.832031 305.765625 254.683594 305.667969 254.417969 305.667969 C 253.398438 305.667969 252.5 304.75 252.5 303.699219 C 252.5 303.433594 252.882812 302.25 253.351562 301.066406 C 253.800781 299.882812 254.566406 297.964844 255.015625 296.785156 L 255.867188 294.667969 L 262.300781 294.699219 L 268.75 294.75 L 270.367188 299.082031 C 271.265625 301.464844 271.984375 303.601562 271.984375 303.832031 C 271.984375 304.765625 271.035156 305.667969 270.050781 305.667969 C 269.667969 305.667969 269.5 305.75 269.5 305.917969 C 269.5 306.132812 270.214844 306.167969 274.917969 306.167969 C 279.398438 306.167969 280.332031 306.132812 280.332031 305.933594 C 280.332031 305.785156 280.050781 305.683594 279.417969 305.632812 C 278.316406 305.535156 277.148438 304.867188 276.417969 303.917969 C 276.117188 303.5 273.351562 297.082031 269.433594 287.699219 C 265.800781 279.035156 262.851562 272.167969 262.734375 272.167969 C 262.617188 272.167969 262.398438 272.582031 262.265625 273.082031 Z M 265.382812 285.867188 L 268.132812 293.167969 L 262.316406 293.167969 C 259.117188 293.167969 256.5 293.132812 256.5 293.082031 C 256.5 293.035156 257.816406 289.648438 259.417969 285.566406 C 261.015625 281.464844 262.332031 278.066406 262.351562 278.015625 C 262.367188 277.867188 262.398438 277.984375 265.382812 285.867188 Z M 265.382812 285.867188 "/>
<path style=" stroke:none;fill-rule:nonzero;fill:rgb(0%,0%,0%);fill-opacity:1;" d="M 285.417969 272.867188 C 285.484375 273.25 285.566406 280.316406 285.601562 288.535156 C 285.683594 303.300781 285.683594 303.484375 285.351562 304.148438 C 284.851562 305.132812 284.132812 305.566406 282.882812 305.632812 C 282.132812 305.683594 281.832031 305.765625 281.832031 305.933594 C 281.832031 306.132812 282.667969 306.167969 286.75 306.167969 C 290.816406 306.167969 291.667969 306.132812 291.667969 305.933594 C 291.667969 305.765625 291.367188 305.683594 290.667969 305.632812 C 289.234375 305.535156 288.300781 304.765625 288 303.398438 C 287.765625 302.449219 287.785156 279.285156 288.015625 279.417969 C 288.101562 279.484375 293.933594 285.648438 300.964844 293.132812 C 307.984375 300.632812 313.882812 306.785156 314.050781 306.800781 C 314.332031 306.851562 314.367188 306.800781 314.265625 306.332031 C 313.933594 304.667969 313.816406 299.167969 313.867188 287.917969 L 313.917969 275.582031 L 314.367188 274.800781 C 314.917969 273.898438 315.898438 273.332031 316.964844 273.332031 C 317.484375 273.332031 317.667969 273.265625 317.667969 273.082031 C 317.667969 272.867188 317.015625 272.832031 312.75 272.832031 C 308.484375 272.832031 307.832031 272.867188 307.832031 273.082031 C 307.832031 273.265625 308.035156 273.332031 308.667969 273.332031 C 310.214844 273.332031 311.316406 274.199219 311.648438 275.683594 C 311.867188 276.601562 311.898438 299.714844 311.683594 299.632812 C 311.601562 299.601562 305.785156 293.433594 298.734375 285.917969 C 291.699219 278.398438 285.800781 272.214844 285.617188 272.199219 C 285.332031 272.148438 285.300781 272.199219 285.417969 272.867188 Z M 285.417969 272.867188 "/>
<path style=" stroke:none;fill-rule:nonzero;fill:rgb(0%,0%,0%);fill-opacity:1;" d="M 378.75 272.949219 C 378.816406 273.398438 378.898438 280.417969 378.933594 288.550781 C 379.015625 303.214844 379.015625 303.367188 378.683594 304.066406 C 378.167969 305.101562 377.464844 305.566406 376.214844 305.632812 C 375.464844 305.683594 375.167969 305.765625 375.167969 305.933594 C 375.167969 306.132812 376 306.167969 380.082031 306.167969 C 384.351562 306.167969 385 306.132812 385 305.917969 C 385 305.734375 384.800781 305.667969 384.25 305.667969 C 382.800781 305.667969 381.699219 304.851562 381.332031 303.515625 C 381.214844 303.101562 381.183594 298.800781 381.199219 291.066406 L 381.25 279.265625 L 394.148438 293 C 401.25 300.566406 407.199219 306.785156 407.382812 306.800781 C 407.648438 306.851562 407.699219 306.800781 407.617188 306.464844 C 407.285156 305.148438 407.148438 299.5 407.199219 288.082031 C 407.25 276.183594 407.265625 275.550781 407.566406 274.949219 C 408 274.066406 408.964844 273.464844 410.101562 273.367188 C 410.714844 273.316406 411 273.214844 411 273.066406 C 411 272.867188 410.148438 272.832031 406.082031 272.832031 C 401.816406 272.832031 401.167969 272.867188 401.167969 273.082031 C 401.167969 273.265625 401.367188 273.332031 401.949219 273.332031 C 403.066406 273.332031 404.082031 273.867188 404.582031 274.734375 L 405 275.449219 L 404.964844 287.550781 L 404.917969 299.648438 L 392.035156 285.898438 C 384.964844 278.351562 379.050781 272.167969 378.898438 272.167969 C 378.683594 272.167969 378.648438 272.300781 378.75 272.949219 Z M 378.75 272.949219 "/>
<path style=" stroke:none;fill-rule:nonzero;fill:rgb(0%,0%,0%);fill-opacity:1;" d="M 428.683594 272.417969 C 421.683594 273.648438 416.648438 278.714844 415.417969 285.734375 C 415.050781 287.917969 415.082031 291.617188 415.515625 293.714844 C 416.800781 300.082031 421.082031 304.632812 427.332031 306.285156 C 428.582031 306.617188 429.484375 306.714844 431.535156 306.785156 C 435.417969 306.917969 437.984375 306.433594 440.75 305.035156 C 442.367188 304.234375 443.199219 303.632812 444.699219 302.199219 L 446 300.949219 L 446 296.714844 C 446 291.285156 446.117188 290.964844 448.199219 290.734375 C 448.851562 290.667969 449.167969 290.550781 449.167969 290.398438 C 449.167969 290.199219 448.332031 290.167969 444.5 290.167969 C 440.667969 290.167969 439.832031 290.199219 439.832031 290.398438 C 439.832031 290.550781 440.148438 290.667969 440.832031 290.734375 C 441.617188 290.832031 441.964844 290.964844 442.382812 291.332031 L 442.917969 291.800781 L 442.964844 296.550781 L 443.015625 301.300781 L 442.132812 302 C 440.699219 303.148438 439.199219 303.949219 437.332031 304.566406 C 430.199219 306.949219 423.449219 304.25 420.433594 297.816406 C 417.867188 292.382812 418.148438 284.964844 421.101562 279.917969 C 422.066406 278.285156 424.050781 276.265625 425.582031 275.367188 C 427.617188 274.183594 429.050781 273.800781 431.785156 273.699219 C 433.832031 273.632812 434.382812 273.683594 435.75 274 C 439.765625 274.917969 442.832031 277.566406 444.015625 281.117188 C 444.214844 281.734375 444.449219 282.167969 444.601562 282.167969 C 444.75 282.167969 444.800781 282.035156 444.734375 281.699219 C 444.699219 281.449219 444.464844 279.933594 444.25 278.332031 C 444.015625 276.734375 443.765625 275.367188 443.699219 275.316406 C 443.417969 275.035156 440.984375 273.816406 439.917969 273.417969 C 437.75 272.601562 436.148438 272.316406 433 272.25 C 430.898438 272.199219 429.699219 272.25 428.683594 272.417969 Z M 428.683594 272.417969 "/>
<path style=" stroke:none;fill-rule:nonzero;fill:rgb(0%,0%,0%);fill-opacity:1;" d="M 50.832031 273.082031 C 50.832031 273.265625 51.015625 273.332031 51.417969 273.332031 C 52.082031 273.332031 53.082031 273.699219 53.566406 274.132812 C 53.734375 274.285156 54.015625 274.714844 54.183594 275.082031 C 54.484375 275.714844 54.5 276.515625 54.5 289.5 C 54.5 302.566406 54.484375 303.285156 54.183594 303.933594 C 53.734375 304.933594 52.851562 305.535156 51.734375 305.632812 C 51.101562 305.683594 50.832031 305.785156 50.832031 305.949219 C 50.832031 306.148438 51.882812 306.183594 58.300781 306.117188 C 66.582031 306.050781 66.582031 306.050781 68.984375 304.867188 C 72.265625 303.265625 74 299.851562 73.5 295.984375 C 73.214844 293.667969 72.417969 292.082031 70.785156 290.550781 C 69.582031 289.433594 68.132812 288.632812 66.75 288.316406 C 66.25 288.199219 65.832031 288.066406 65.832031 288.015625 C 65.832031 287.964844 66.183594 287.785156 66.601562 287.601562 C 67.648438 287.167969 69.183594 285.714844 69.785156 284.550781 C 70.515625 283.167969 70.714844 282.066406 70.632812 280.214844 C 70.550781 278.851562 70.464844 278.5 69.949219 277.433594 C 69.167969 275.867188 68.082031 274.851562 66.285156 274 C 64.148438 272.984375 62.933594 272.832031 56.398438 272.832031 C 51.566406 272.832031 50.832031 272.867188 50.832031 273.082031 Z M 62.183594 274.566406 C 65.066406 275.183594 66.515625 276.816406 67.015625 280 C 67.25 281.535156 67 283.234375 66.316406 284.617188 C 65.332031 286.667969 63.433594 287.714844 60.132812 288.101562 C 59.601562 288.148438 59.167969 288.265625 59.167969 288.351562 C 59.167969 288.433594 59.199219 288.5 59.234375 288.5 C 60.050781 288.5 63.050781 288.933594 63.964844 289.167969 C 67.964844 290.25 70 292.898438 70 296.984375 C 70 299.285156 69.214844 301.265625 67.832031 302.566406 C 66.183594 304.117188 64.75 304.5 60.550781 304.5 L 57.667969 304.5 L 57.667969 274.332031 L 59.382812 274.332031 C 60.316406 274.332031 61.582031 274.449219 62.183594 274.566406 Z M 62.183594 274.566406 "/>
<path style=" stroke:none;fill-rule:nonzero;fill:rgb(0%,0%,0%);fill-opacity:1;" d="M 78.332031 273.082031 C 78.332031 273.265625 78.515625 273.332031 79.050781 273.332031 C 80.066406 273.332031 80.851562 273.800781 81.300781 274.667969 L 81.667969 275.398438 L 81.667969 285.832031 C 81.667969 292.617188 81.734375 296.617188 81.851562 297.265625 C 82.683594 301.851562 86.382812 305.515625 91.183594 306.5 C 94.199219 307.132812 98 306.882812 100.398438 305.898438 C 102.832031 304.917969 105.082031 302.867188 106.285156 300.582031 C 107.601562 298.035156 107.550781 298.601562 107.648438 286.082031 L 107.75 274.917969 L 108.117188 274.398438 C 108.582031 273.734375 109.433594 273.332031 110.316406 273.332031 C 110.816406 273.332031 111 273.265625 111 273.082031 C 111 272.867188 110.398438 272.832031 106.582031 272.832031 C 102.949219 272.832031 102.167969 272.867188 102.167969 273.066406 C 102.167969 273.214844 102.449219 273.316406 103.066406 273.367188 C 104.25 273.464844 105.082031 274.066406 105.332031 275.015625 C 105.464844 275.484375 105.5 278.964844 105.464844 286.132812 C 105.398438 297.800781 105.433594 297.332031 104.167969 299.933594 C 103.050781 302.234375 100.949219 304.035156 98.464844 304.851562 C 97.398438 305.199219 96.949219 305.25 94.832031 305.25 C 92.601562 305.234375 92.332031 305.199219 91.265625 304.785156 C 88.183594 303.566406 86.183594 301.167969 85.132812 297.417969 C 84.765625 296.101562 84.765625 295.933594 84.75 285.5 L 84.75 274.917969 L 85.117188 274.398438 C 85.582031 273.734375 86.433594 273.332031 87.316406 273.332031 C 87.816406 273.332031 88 273.265625 88 273.082031 C 88 272.867188 87.351562 272.832031 83.167969 272.832031 C 78.984375 272.832031 78.332031 272.867188 78.332031 273.082031 Z M 78.332031 273.082031 "/>
<path style=" stroke:none;fill-rule:nonzero;fill:rgb(0%,0%,0%);fill-opacity:1;" d="M 190.332031 273.066406 C 190.332031 273.265625 190.5 273.332031 190.917969 273.332031 C 192.285156 273.332031 193.714844 274.550781 193.917969 275.867188 C 193.964844 276.265625 194 282.667969 193.964844 290.117188 L 193.917969 303.632812 L 193.417969 304.351562 C 192.800781 305.214844 191.984375 305.667969 191.050781 305.667969 C 190.515625 305.667969 190.332031 305.734375 190.332031 305.933594 C 190.332031 306.148438 191.117188 306.183594 197.714844 306.132812 C 205.949219 306.066406 205.933594 306.066406 208.433594 304.832031 C 210.683594 303.734375 212.300781 301.765625 212.816406 299.5 C 213.082031 298.382812 213.035156 295.867188 212.75 294.765625 C 211.917969 291.566406 209.285156 289.015625 206.082031 288.285156 L 205.117188 288.066406 L 206.101562 287.582031 C 207.351562 286.984375 208.785156 285.535156 209.382812 284.285156 C 210.035156 282.933594 210.300781 281.015625 210.035156 279.484375 C 209.601562 277 208.265625 275.214844 206 274.117188 C 203.667969 272.984375 203.433594 272.949219 196.550781 272.867188 C 190.964844 272.816406 190.332031 272.832031 190.332031 273.066406 Z M 202.617188 274.832031 C 205.148438 275.714844 206.5 277.917969 206.5 281.183594 C 206.5 285.214844 204.367188 287.464844 200.050781 288.035156 C 199.285156 288.132812 198.667969 288.285156 198.667969 288.351562 C 198.667969 288.433594 198.699219 288.5 198.734375 288.5 C 199.398438 288.5 202.5 288.917969 203.25 289.101562 C 207.515625 290.183594 209.785156 293.300781 209.433594 297.617188 C 209.183594 300.800781 207.601562 303.066406 204.964844 304 C 204.035156 304.332031 203.515625 304.398438 200.464844 304.464844 L 197 304.535156 L 197 289.550781 C 197 281.300781 197.050781 274.5 197.132812 274.433594 C 197.199219 274.351562 198.234375 274.332031 199.417969 274.382812 C 201.050781 274.449219 201.832031 274.550781 202.617188 274.832031 Z M 202.617188 274.832031 "/>
<path style=" stroke:none;fill-rule:nonzero;fill:rgb(0%,0%,0%);fill-opacity:1;" d="M 322.332031 273.082031 C 322.332031 273.265625 322.515625 273.332031 322.917969 273.332031 C 323.25 273.332031 323.75 273.433594 324.050781 273.566406 C 324.699219 273.832031 325.617188 274.832031 325.785156 275.464844 C 325.867188 275.714844 325.917969 282.035156 325.917969 289.5 C 325.917969 296.964844 325.867188 303.285156 325.785156 303.535156 C 325.632812 304.117188 324.765625 305.101562 324.148438 305.433594 C 323.898438 305.550781 323.382812 305.667969 323 305.667969 C 322.515625 305.667969 322.332031 305.734375 322.332031 305.933594 C 322.332031 306.148438 323.367188 306.183594 332.132812 306.132812 L 341.917969 306.066406 L 343.515625 305.632812 C 348.949219 304.148438 352.917969 300.566406 354.617188 295.582031 C 355.5 292.984375 355.765625 288.917969 355.25 285.949219 C 354.035156 278.984375 348.785156 274.066406 341.417969 273 C 340.75 272.917969 336.382812 272.832031 331.300781 272.832031 C 323.433594 272.832031 322.332031 272.867188 322.332031 273.082031 Z M 341.75 274.648438 C 344.066406 275.214844 345.765625 276.132812 347.464844 277.714844 C 350.765625 280.832031 352.417969 286 351.867188 291.464844 C 351.300781 297.148438 348.667969 301.367188 344.417969 303.417969 C 341.785156 304.683594 341.382812 304.734375 334.832031 304.75 L 329.082031 304.75 L 329.035156 289.535156 L 329 274.332031 L 334.699219 274.332031 C 339.765625 274.332031 340.566406 274.367188 341.75 274.648438 Z M 341.75 274.648438 "/>
<path style=" stroke:none;fill-rule:nonzero;fill:rgb(0%,0%,0%);fill-opacity:1;" d="M 359.832031 273.082031 C 359.832031 273.265625 360.015625 273.332031 360.417969 273.332031 C 361.683594 273.332031 362.964844 274.332031 363.332031 275.617188 C 363.464844 276.066406 363.5 280.351562 363.464844 289.832031 C 363.417969 302.765625 363.398438 303.449219 363.101562 304.050781 C 362.632812 305 361.816406 305.550781 360.734375 305.632812 C 360.117188 305.683594 359.832031 305.785156 359.832031 305.933594 C 359.832031 306.132812 360.734375 306.167969 365.082031 306.167969 C 369.632812 306.167969 370.332031 306.132812 370.332031 305.917969 C 370.332031 305.734375 370.132812 305.667969 369.566406 305.667969 C 368.714844 305.667969 368.300781 305.5 367.617188 304.851562 C 366.515625 303.851562 366.582031 304.75 366.535156 290.082031 C 366.5 280.785156 366.550781 276.5 366.683594 275.867188 C 367 274.332031 368.183594 273.332031 369.667969 273.332031 C 370.148438 273.332031 370.332031 273.265625 370.332031 273.082031 C 370.332031 272.867188 369.632812 272.832031 365.082031 272.832031 C 360.535156 272.832031 359.832031 272.867188 359.832031 273.082031 Z M 359.832031 273.082031 "/>
<path style=" stroke:none;fill-rule:nonzero;fill:rgb(0%,0%,0%);fill-opacity:1;" d="M 197.464844 317.367188 C 197.132812 317.484375 196.484375 318.316406 195.066406 320.433594 C 194 322.035156 193.050781 323.382812 192.964844 323.433594 C 192.867188 323.5 190.117188 323.566406 186.851562 323.582031 C 179.382812 323.632812 177.566406 323.800781 178.117188 324.351562 C 178.351562 324.582031 178.734375 324.582031 186.300781 324.417969 C 191.417969 324.300781 192.332031 324.316406 192.332031 324.515625 C 192.332031 324.648438 191.132812 326.917969 189.683594 329.582031 C 187.265625 334 186.964844 334.464844 186.148438 335.117188 C 183.632812 337.132812 179.464844 339.550781 176.867188 340.5 C 175.035156 341.167969 172.167969 341.714844 171.617188 341.515625 C 170.75 341.183594 170.582031 340.050781 171.234375 338.933594 C 171.734375 338.066406 172.082031 337.898438 173.75 337.648438 C 176.332031 337.285156 178.765625 336.101562 180.535156 334.332031 C 181.765625 333.117188 182.015625 332.550781 181.617188 331.933594 C 181.300781 331.449219 180.667969 331.316406 179.484375 331.484375 C 177.816406 331.699219 174.648438 333.714844 172.285156 336.082031 C 170.667969 337.683594 170.082031 338.582031 169.832031 339.765625 C 169.367188 341.964844 170.734375 342.949219 173.582031 342.5 C 176.785156 341.984375 180.933594 340.050781 184.714844 337.316406 C 185.332031 336.867188 185.832031 336.566406 185.832031 336.632812 C 185.832031 336.714844 184.984375 338.601562 183.933594 340.851562 C 181.601562 345.851562 181.316406 346.785156 181.898438 347.582031 C 182.117188 347.882812 182.132812 347.867188 182.417969 347.449219 C 182.566406 347.199219 182.882812 346.398438 183.101562 345.648438 C 183.984375 342.617188 188.535156 333.398438 192.464844 326.714844 C 193.382812 325.132812 193.648438 324.800781 194.117188 324.648438 C 194.484375 324.535156 196.050781 324.5 198.566406 324.535156 C 200.714844 324.550781 202.535156 324.535156 202.601562 324.449219 C 202.667969 324.382812 202.632812 324.234375 202.515625 324.117188 C 202.367188 323.964844 201.214844 323.898438 198.332031 323.867188 C 195.851562 323.832031 194.332031 323.75 194.332031 323.648438 C 194.332031 323.234375 196.75 319.964844 197.648438 319.132812 C 198.699219 318.183594 198.851562 317.867188 198.398438 317.433594 C 198.117188 317.132812 198.082031 317.132812 197.464844 317.367188 Z M 179.984375 332.484375 C 180.167969 332.601562 180.148438 332.734375 179.917969 333.234375 C 179.566406 333.984375 178.285156 335.015625 176.882812 335.683594 C 175.816406 336.183594 173.214844 336.933594 173.050781 336.785156 C 172.917969 336.632812 174.550781 335.234375 176.117188 334.183594 C 177.265625 333.398438 179.25 332.332031 179.550781 332.332031 C 179.667969 332.332031 179.851562 332.398438 179.984375 332.484375 Z M 179.984375 332.484375 "/>
<path style=" stroke:none;fill-rule:nonzero;fill:rgb(0%,0%,0%);fill-opacity:1;" d="M 298.898438 317.300781 C 298.699219 317.433594 296.25 320.949219 295.417969 322.285156 C 294.535156 323.683594 294.683594 323.667969 287.25 323.683594 C 283.683594 323.699219 280.535156 323.75 280.25 323.816406 C 279.984375 323.867188 279.734375 324.035156 279.699219 324.183594 C 279.667969 324.417969 280 324.464844 282.183594 324.550781 C 283.582031 324.617188 286.765625 324.667969 289.285156 324.667969 C 291.785156 324.667969 293.832031 324.714844 293.832031 324.785156 C 293.832031 324.832031 293.25 325.949219 292.515625 327.234375 C 291.800781 328.535156 290.785156 330.398438 290.285156 331.382812 C 289.167969 333.515625 288.398438 334.632812 287.449219 335.398438 C 286.785156 335.933594 280.632812 339.316406 278.367188 340.382812 C 277.535156 340.765625 277.285156 340.832031 277.082031 340.667969 C 276.683594 340.332031 276.785156 339.417969 277.417969 337.484375 C 277.734375 336.484375 278 335.566406 278 335.417969 C 278 335.234375 277.816406 335.167969 277.316406 335.167969 C 276.734375 335.167969 276.234375 335.449219 273.582031 337.183594 C 270.5 339.199219 267.816406 340.617188 266.765625 340.785156 C 265.316406 341.015625 265.066406 339.949219 266.214844 338.398438 C 268.082031 335.867188 271.050781 333.800781 273.851562 333.082031 C 275.082031 332.765625 275.515625 332.832031 276.117188 333.5 C 276.582031 334.035156 276.964844 334.132812 277.300781 333.800781 C 277.632812 333.464844 277.535156 333 277.015625 332.484375 C 276.550781 332.015625 276.464844 332 275.050781 332 C 273.714844 332 273.464844 332.050781 272.398438 332.566406 C 270.832031 333.316406 268.316406 334.832031 265.25 336.898438 C 261.082031 339.683594 258.132812 341.035156 255.148438 341.5 C 253.683594 341.734375 253.066406 341.566406 252.699219 340.800781 C 252.398438 340.167969 252.714844 339.082031 253.382812 338.417969 C 253.816406 337.984375 254.101562 337.867188 254.917969 337.765625 C 257.285156 337.5 258.648438 337 260.550781 335.683594 C 262.285156 334.464844 263.550781 333.148438 263.550781 332.515625 C 263.550781 331.5 262.851562 331.199219 261.101562 331.515625 C 259.800781 331.734375 259.300781 332.050781 255.917969 334.75 C 253 337.101562 252.464844 337.617188 251.984375 338.601562 C 251.417969 339.785156 251.367188 340.933594 251.867188 341.667969 C 252.398438 342.449219 253.117188 342.683594 254.582031 342.582031 C 256.214844 342.449219 257.082031 342.167969 260.851562 340.566406 C 262.667969 339.800781 264.183594 339.167969 264.199219 339.167969 C 264.234375 339.167969 264.234375 339.5 264.199219 339.917969 C 264.066406 341.566406 264.667969 342.117188 266.398438 341.933594 C 267.765625 341.800781 269.449219 340.964844 272.648438 338.851562 C 274.050781 337.933594 275.265625 337.167969 275.351562 337.167969 C 275.449219 337.167969 275.484375 338.015625 275.464844 339.148438 C 275.398438 341.550781 275.550781 341.832031 276.832031 341.832031 C 277.464844 341.832031 277.964844 341.648438 279.265625 340.984375 C 282.582031 339.265625 285.285156 337.765625 286.398438 337.050781 C 287.25 336.5 287.515625 336.382812 287.449219 336.617188 C 287.398438 336.785156 286.515625 338.714844 285.5 340.917969 C 283.464844 345.265625 282.984375 346.714844 283.316406 347.449219 L 283.515625 347.882812 L 283.898438 347.484375 C 284.132812 347.25 284.515625 346.382812 284.816406 345.382812 C 285.816406 342.101562 290.117188 333.433594 294.035156 326.785156 C 294.867188 325.367188 295.316406 324.765625 295.632812 324.632812 C 295.933594 324.515625 297.316406 324.5 299.785156 324.566406 C 302.25 324.632812 303.632812 324.601562 303.949219 324.484375 L 304.417969 324.300781 L 304 324.082031 C 303.714844 323.917969 302.917969 323.832031 301.5 323.816406 C 300.351562 323.800781 298.617188 323.75 297.632812 323.683594 L 295.832031 323.582031 L 296.964844 321.964844 C 298.167969 320.25 298.734375 319.566406 299.714844 318.699219 C 300.050781 318.398438 300.332031 318.066406 300.332031 317.933594 C 300.332031 317.398438 299.382812 316.964844 298.898438 317.300781 Z M 261.832031 332.816406 C 261.832031 333.167969 261.617188 333.5 260.949219 334.132812 C 259.882812 335.117188 258.601562 335.800781 256.648438 336.398438 C 254.417969 337.082031 254.316406 336.984375 255.964844 335.632812 C 257.933594 334.015625 260.765625 332.332031 261.550781 332.332031 C 261.75 332.332031 261.832031 332.464844 261.832031 332.816406 Z M 261.832031 332.816406 "/>
<path style=" stroke:none;fill-rule:nonzero;fill:rgb(0%,0%,0%);fill-opacity:1;" d="M 336.75 317.433594 C 336.601562 317.582031 335.699219 318.882812 334.734375 320.332031 C 333.765625 321.785156 332.832031 323.101562 332.632812 323.265625 C 332.316406 323.566406 331.800781 323.582031 325.148438 323.667969 C 317.832031 323.75 317.234375 323.816406 317.816406 324.367188 C 317.964844 324.535156 319.566406 324.566406 324.917969 324.535156 C 328.699219 324.5 331.832031 324.535156 331.882812 324.617188 C 331.917969 324.683594 330.699219 327.035156 329.183594 329.816406 L 326.398438 334.882812 L 324.566406 336.550781 C 321.75 339.148438 317.117188 342.464844 315.800781 342.851562 C 315.417969 342.949219 315.25 342.917969 314.984375 342.648438 C 314.582031 342.25 314.582031 342.035156 315 340.449219 C 315.683594 337.714844 317.199219 335.035156 319.117188 333.082031 C 320.265625 331.917969 320.566406 331.449219 320.417969 330.984375 C 320.316406 330.699219 320.183594 330.648438 319.617188 330.699219 L 318.933594 330.75 L 317.398438 333.234375 C 314.867188 337.332031 313.898438 339.515625 313.714844 341.667969 C 313.648438 342.601562 313.683594 342.816406 313.984375 343.199219 C 314.800781 344.214844 316.382812 343.933594 318.785156 342.351562 C 320.515625 341.214844 321.132812 340.699219 323.566406 338.449219 C 324.582031 337.515625 325.351562 336.867188 325.300781 337 C 325.234375 337.132812 324.398438 338.964844 323.417969 341.066406 C 321.535156 345.132812 321 346.765625 321.332031 347.484375 L 321.515625 347.882812 L 321.898438 347.484375 C 322.132812 347.25 322.515625 346.382812 322.816406 345.367188 C 324.066406 341.316406 332.316406 325.351562 333.515625 324.699219 C 333.832031 324.515625 334.765625 324.5 337.832031 324.566406 C 340.964844 324.648438 341.832031 324.617188 342.066406 324.449219 C 342.351562 324.234375 342.351562 324.214844 341.898438 324.050781 C 341.632812 323.949219 339.785156 323.816406 337.765625 323.765625 C 335.765625 323.714844 334.082031 323.632812 334.035156 323.582031 C 333.984375 323.535156 334.535156 322.632812 335.25 321.566406 C 336.148438 320.234375 336.832031 319.398438 337.449219 318.933594 C 338.382812 318.199219 338.515625 317.882812 338.035156 317.449219 C 337.648438 317.101562 337.101562 317.082031 336.75 317.433594 Z M 336.75 317.433594 "/>
<path style=" stroke:none;fill-rule:nonzero;fill:rgb(0%,0%,0%);fill-opacity:1;" d="M 172.367188 320.449219 C 171.148438 321.515625 163.367188 335.765625 160.417969 342.332031 C 159.035156 345.398438 157.667969 348.867188 157.667969 349.285156 C 157.667969 349.515625 157.882812 349.898438 158.148438 350.183594 C 158.617188 350.632812 158.714844 350.667969 159.964844 350.667969 C 160.699219 350.667969 162.183594 350.515625 163.25 350.332031 C 168.382812 349.449219 173.417969 346.765625 172.917969 345.167969 C 172.832031 344.882812 172.667969 344.949219 171.449219 345.898438 C 169.898438 347.066406 168.214844 347.832031 165.898438 348.433594 C 163.933594 348.933594 160.265625 349.367188 159.734375 349.148438 C 158.964844 348.867188 159.25 347.800781 161.101562 343.734375 C 164.785156 335.714844 168.867188 328.183594 172.5 322.75 C 173.851562 320.75 173.964844 320.417969 173.515625 320.183594 C 173.050781 319.933594 172.964844 319.949219 172.367188 320.449219 Z M 172.367188 320.449219 "/>
<path style=" stroke:none;fill-rule:nonzero;fill:rgb(0%,0%,0%);fill-opacity:1;" d="M 203.949219 324.683594 C 203.316406 325.984375 202.882812 326.617188 201.800781 327.75 C 200.316406 329.316406 200.199219 329.851562 201.535156 329.015625 C 202.75 328.25 203.601562 327.398438 204.351562 326.199219 C 205.117188 324.984375 205.367188 323.800781 204.964844 323.316406 C 204.785156 323.082031 204.648438 323.25 203.949219 324.683594 Z M 203.949219 324.683594 "/>
<path style=" stroke:none;fill-rule:nonzero;fill:rgb(0%,0%,0%);fill-opacity:1;" d="M 322.800781 326.382812 C 322.265625 326.785156 322.066406 327.066406 322.035156 327.449219 C 321.949219 328.300781 322.484375 328.316406 323.648438 327.5 C 324.765625 326.714844 324.964844 326.382812 324.550781 326.066406 C 324.066406 325.699219 323.566406 325.800781 322.800781 326.382812 Z M 322.800781 326.382812 "/>
<path style=" stroke:none;fill-rule:nonzero;fill:rgb(0%,0%,0%);fill-opacity:1;" d="M 211.035156 329.183594 C 209.601562 329.367188 208.035156 330.132812 206.882812 331.199219 C 205.066406 332.917969 204.765625 334.433594 205.667969 337.332031 C 205.949219 338.234375 206.117188 339.082031 206.066406 339.234375 C 206.015625 339.382812 205.484375 339.882812 204.898438 340.332031 C 199.417969 344.648438 194.667969 349.917969 194.667969 351.683594 C 194.667969 352.199219 195.050781 352.5 195.714844 352.5 C 196.199219 352.5 199.265625 351.449219 200.25 350.964844 C 202.5 349.816406 205.066406 347.550781 206.132812 345.785156 C 206.917969 344.484375 207.464844 342.816406 207.582031 341.351562 C 207.632812 340.648438 207.714844 339.917969 207.75 339.734375 C 207.832031 339.332031 214.234375 335.015625 216.082031 334.117188 C 216.632812 333.832031 217.117188 333.582031 217.167969 333.550781 C 217.316406 333.417969 216.734375 333.167969 216.234375 333.167969 C 215.515625 333.167969 214.417969 333.765625 210.683594 336.234375 C 208.734375 337.5 207.464844 338.25 207.417969 338.117188 C 207.382812 338.015625 207.199219 337.433594 207 336.832031 C 206.183594 334.398438 206.25 333.582031 207.367188 332.464844 C 208.285156 331.550781 210.515625 330.5 211.917969 330.332031 C 212.917969 330.214844 213.667969 329.851562 213.667969 329.5 C 213.667969 329.316406 212.851562 329 212.449219 329.015625 C 212.25 329.035156 211.601562 329.101562 211.035156 329.183594 Z M 206.332031 341.199219 C 206.316406 341.984375 205.683594 343.765625 205 344.917969 C 204.234375 346.183594 201.867188 348.683594 200.582031 349.550781 C 199.199219 350.5 197.933594 350.984375 196.867188 351 L 195.984375 351 L 196.433594 350.183594 C 197.015625 349.082031 199.082031 346.734375 201.015625 344.964844 C 202.714844 343.398438 206 340.683594 206.214844 340.667969 C 206.285156 340.667969 206.332031 340.917969 206.332031 341.199219 Z M 206.332031 341.199219 "/>
<path style=" stroke:none;fill-rule:nonzero;fill:rgb(0%,0%,0%);fill-opacity:1;" d="M 244.332031 329.382812 C 244.066406 329.515625 243.5 330.382812 242.667969 331.898438 C 241.285156 334.449219 241.101562 334.648438 237.917969 336.816406 C 233.765625 339.648438 229.582031 341.433594 226.234375 341.765625 C 224.535156 341.949219 224.101562 341.398438 224.601562 339.699219 C 225.464844 336.667969 229.449219 332.949219 233.117188 331.75 C 234.316406 331.351562 234.667969 331.566406 234.667969 332.667969 C 234.667969 333.132812 234.714844 333.5 234.800781 333.5 C 234.867188 333.5 235.167969 333.351562 235.464844 333.167969 C 235.882812 332.917969 236 332.734375 236 332.316406 C 236 331.199219 235.25 330.667969 233.699219 330.667969 C 231.351562 330.667969 226.917969 333.851562 224.667969 337.167969 C 222.214844 340.765625 222.632812 343.167969 225.714844 343.167969 C 227.515625 343.167969 232.785156 341 236.582031 338.667969 C 237.683594 338 238.851562 337.300781 239.167969 337.101562 L 239.75 336.75 L 239.398438 337.332031 C 239.199219 337.648438 238.601562 338.632812 238.050781 339.5 C 237.5 340.367188 236.984375 341.25 236.933594 341.464844 C 236.785156 341.949219 237.082031 342.351562 237.484375 342.199219 C 237.632812 342.132812 239.464844 340.300781 241.566406 338.117188 C 245.484375 334.050781 246.082031 333.5 246.601562 333.5 C 246.765625 333.5 247.332031 333.800781 247.867188 334.167969 C 248.382812 334.535156 249.132812 334.949219 249.515625 335.082031 C 250.851562 335.566406 253.25 335.265625 254.167969 334.535156 C 254.535156 334.234375 254.484375 334.234375 252.566406 334.234375 C 250.316406 334.25 249.734375 334.050781 248.367188 332.800781 C 247.484375 331.984375 246.984375 331.765625 246.398438 331.898438 C 246.117188 331.984375 245.082031 332.898438 243.648438 334.382812 C 242.382812 335.683594 241.316406 336.699219 241.265625 336.648438 C 241.214844 336.601562 241.851562 335.433594 242.699219 334.066406 C 244.867188 330.515625 245 330.285156 245 329.917969 C 245 329.316406 244.785156 329.148438 244.332031 329.382812 Z M 244.332031 329.382812 "/>
<path style=" stroke:none;fill-rule:nonzero;fill:rgb(0%,0%,0%);fill-opacity:1;" d="M 299.800781 331.566406 C 298.699219 331.964844 293.367188 336.050781 292.332031 337.300781 C 290.964844 338.949219 290.601562 340.816406 291.433594 341.816406 C 292.066406 342.582031 292.867188 342.765625 294.582031 342.515625 C 298.332031 342 303.417969 339.464844 307.582031 336.035156 C 309.015625 334.851562 309.316406 334.535156 309.332031 334.199219 C 309.332031 333.867188 309.066406 333.964844 307.964844 334.75 C 301.933594 339.035156 299.214844 340.417969 295.050781 341.332031 C 293.082031 341.765625 293.066406 341.765625 292.484375 341.183594 C 291.917969 340.601562 291.867188 340.082031 292.332031 339.183594 C 292.800781 338.25 293.367188 337.867188 294.464844 337.75 C 296.816406 337.464844 298.867188 336.648438 300.867188 335.167969 C 302.851562 333.714844 303.484375 332.398438 302.566406 331.683594 C 302.050781 331.265625 300.765625 331.214844 299.800781 331.566406 Z M 301.300781 332.816406 C 301.382812 333.398438 299.851562 334.816406 298.316406 335.566406 C 297.148438 336.132812 294.535156 336.917969 294.367188 336.75 C 293.949219 336.332031 300.035156 332.265625 300.917969 332.367188 C 301.117188 332.398438 301.265625 332.566406 301.300781 332.816406 Z M 301.300781 332.816406 "/>
</g>
</svg>
