<?xml version="1.0" encoding="UTF-8"?>
<svg xmlns="http://www.w3.org/2000/svg" xmlns:xlink="http://www.w3.org/1999/xlink" width="100pt" height="100pt" viewBox="0 0 100 100" version="1.1">

<path class="st0" style=" stroke:none;fill-rule:nonzero;fill:rgb(0%,0%,0%);fill-opacity:1;" d="M 28.011719 23.816406 C 27.226562 23.988281 26.539062 24.625 26.277344 25.417969 C 26.195312 25.652344 26.1875 25.734375 26.1875 26.148438 C 26.1875 26.574219 26.195312 26.644531 26.28125 26.882812 C 26.535156 27.625 27.070312 28.160156 27.816406 28.421875 L 28.082031 28.515625 L 65.214844 28.53125 L 64.898438 28.226562 C 63.464844 26.851562 61.375 25.65625 59.050781 24.882812 C 57.335938 24.3125 55.835938 24.027344 53.5 23.828125 C 52.785156 23.765625 28.289062 23.757812 28.011719 23.816406 Z M 28.011719 23.816406 M 35.082031 33.335938 C 34.519531 33.421875 33.929688 33.753906 33.578125 34.191406 C 32.949219 34.984375 32.871094 36.058594 33.375 36.917969 C 33.632812 37.355469 34.0625 37.726562 34.535156 37.921875 C 35.011719 38.113281 33.769531 38.101562 52.15625 38.101562 L 69.078125 38.101562 L 69.054688 37.707031 C 68.976562 36.390625 68.714844 34.960938 68.316406 33.675781 L 68.195312 33.300781 L 51.738281 33.304688 C 42.625 33.308594 35.191406 33.320312 35.082031 33.335938 Z M 35.082031 33.335938 M 28.035156 42.921875 C 27.914062 42.945312 27.695312 43.023438 27.550781 43.097656 C 26.921875 43.398438 26.507812 43.859375 26.277344 44.519531 C 26.191406 44.761719 26.1875 44.828125 26.1875 45.25 C 26.1875 45.667969 26.195312 45.746094 26.277344 45.984375 C 26.402344 46.367188 26.578125 46.648438 26.882812 46.949219 C 27.191406 47.261719 27.542969 47.464844 27.953125 47.566406 C 28.210938 47.632812 28.363281 47.632812 46.515625 47.632812 L 64.820312 47.632812 L 65.183594 47.34375 C 65.644531 46.984375 66.46875 46.15625 66.828125 45.707031 C 67.160156 45.285156 67.527344 44.738281 67.789062 44.25 C 67.996094 43.875 68.347656 43.113281 68.386719 42.953125 L 68.40625 42.867188 L 48.328125 42.871094 C 31.191406 42.875 28.214844 42.878906 28.035156 42.921875 Z M 28.035156 42.921875 M 20.25 45.945312 C 19.390625 46.089844 18.671875 46.445312 18.058594 47.03125 C 17.40625 47.648438 16.957031 48.519531 16.835938 49.378906 C 16.65625 50.675781 17.074219 51.941406 17.984375 52.851562 C 19.617188 54.488281 22.261719 54.449219 23.84375 52.769531 C 24.371094 52.210938 24.738281 51.476562 24.882812 50.703125 C 24.949219 50.34375 24.949219 49.628906 24.882812 49.246094 C 24.605469 47.667969 23.351562 46.359375 21.765625 45.996094 C 21.398438 45.910156 20.617188 45.886719 20.25 45.945312 Z M 20.25 45.945312 M 27.945312 52.433594 C 27.171875 52.636719 26.535156 53.238281 26.277344 54.015625 C 26.195312 54.253906 26.1875 54.332031 26.1875 54.75 C 26.1875 55.175781 26.191406 55.238281 26.28125 55.484375 C 26.542969 56.238281 27.058594 56.753906 27.820312 57.023438 L 28.082031 57.117188 L 69.996094 57.132812 L 69.847656 56.691406 C 69.46875 55.59375 68.980469 54.589844 68.382812 53.679688 C 68.132812 53.304688 67.714844 52.75 67.492188 52.503906 L 67.367188 52.367188 L 47.777344 52.371094 C 28.753906 52.371094 28.175781 52.375 27.945312 52.433594 Z M 27.945312 52.433594 M 35.167969 61.921875 C 34.1875 62.0625 33.453125 62.667969 33.148438 63.582031 C 33.070312 63.816406 33.058594 63.902344 33.058594 64.285156 C 33.058594 64.605469 33.070312 64.765625 33.113281 64.910156 C 33.375 65.773438 33.957031 66.355469 34.828125 66.625 C 35.007812 66.679688 36.027344 66.683594 52.40625 66.691406 L 69.796875 66.699219 L 69.859375 66.527344 C 70.042969 66.035156 70.289062 65.101562 70.414062 64.433594 C 70.550781 63.6875 70.667969 62.613281 70.667969 62.074219 L 70.667969 61.898438 L 52.960938 61.902344 C 43.21875 61.90625 35.214844 61.914062 35.167969 61.921875 Z M 35.167969 61.921875 M 28.167969 71.488281 C 27.625 71.578125 27.007812 71.941406 26.6875 72.363281 C 26.484375 72.628906 26.382812 72.8125 26.277344 73.117188 C 26.191406 73.359375 26.1875 73.421875 26.1875 73.851562 C 26.1875 74.265625 26.195312 74.347656 26.277344 74.582031 C 26.488281 75.226562 26.953125 75.742188 27.570312 76.03125 C 28.042969 76.253906 26.953125 76.234375 40.238281 76.234375 C 51.835938 76.234375 52.953125 76.222656 54.148438 76.132812 C 56.457031 75.957031 58.53125 75.578125 60.5 74.984375 C 62.507812 74.375 64.105469 73.578125 65.566406 72.464844 C 65.917969 72.195312 66.699219 71.519531 66.699219 71.484375 C 66.699219 71.464844 28.28125 71.46875 28.167969 71.488281 Z M 28.167969 71.488281 "/>

<path class="st1" style=" stroke:none;fill-rule:nonzero;fill:rgb(0%,0%,0%);fill-opacity:1;" d="M 64.003906 24.054688 C 68.601562 26.820312 71.203125 30.785156 71.945312 36.148438 C 72.09375 37.214844 72.117188 37.589844 72.117188 38.867188 C 72.117188 39.832031 72.101562 40.183594 72.058594 40.566406 C 71.765625 42.902344 71.0625 44.8125 69.855469 46.535156 C 69.347656 47.261719 69.035156 47.632812 68.308594 48.371094 L 67.792969 48.894531 L 67.972656 49.054688 C 68.914062 49.90625 69.867188 50.941406 70.558594 51.863281 C 73.1875 55.359375 74.15625 59.359375 73.496094 64 C 73.226562 65.898438 72.664062 67.742188 71.867188 69.332031 C 70.539062 71.984375 68.414062 74.171875 65.632812 75.738281 C 65.421875 75.859375 65.152344 76.011719 65.035156 76.078125 L 64.816406 76.203125 L 65.765625 76.1875 C 67.078125 76.160156 68.171875 76.058594 69.59375 75.8125 C 73.695312 75.121094 76.671875 73.839844 78.988281 71.761719 C 80.746094 70.1875 82.089844 67.898438 82.714844 65.417969 C 83.066406 64.003906 83.183594 62.980469 83.183594 61.316406 C 83.183594 60.097656 83.164062 59.828125 83.015625 58.902344 C 82.589844 56.265625 81.382812 53.925781 79.441406 51.988281 C 78.359375 50.902344 77.828125 50.527344 76.023438 49.546875 C 75.542969 49.285156 75.148438 49.0625 75.144531 49.046875 C 75.136719 49.03125 75.328125 48.910156 75.574219 48.785156 C 79.125 46.910156 81.125 44.117188 81.589844 40.367188 C 81.671875 39.710938 81.671875 38.019531 81.585938 37.25 C 81.460938 36.046875 81.273438 35.019531 81.019531 34.132812 C 80.0625 30.769531 78.078125 28.234375 74.976562 26.402344 C 74.480469 26.109375 73.289062 25.53125 72.75 25.316406 C 70.773438 24.535156 68.351562 24.03125 65.832031 23.867188 C 65.195312 23.828125 63.921875 23.765625 63.6875 23.765625 L 63.527344 23.765625 Z M 64.003906 24.054688 "/>

</svg>
